<?xml version="1.0" encoding="UTF-8"?>
<!DOCTYPE svg PUBLIC "-//W3C//DTD SVG 1.1//EN" "http://www.w3.org/Graphics/SVG/1.1/DTD/svg11.dtd">
<svg xmlns="http://www.w3.org/2000/svg" version="1.1" width="268px" height="320px" style="shape-rendering:geometricPrecision; text-rendering:geometricPrecision; image-rendering:optimizeQuality; fill-rule:evenodd; clip-rule:evenodd" xmlns:xlink="http://www.w3.org/1999/xlink">
<g><path style="opacity:0.557" fill="#cd6163" d="M 145.5,12.5 C 150.457,13.3569 155.124,13.3569 159.5,12.5C 167.22,16.0223 174.553,20.0223 181.5,24.5C 179.436,24.313 177.436,23.813 175.5,23C 170.841,19.7738 165.841,17.1071 160.5,15C 158.741,14.2025 157.074,14.3691 155.5,15.5C 156.91,16.5695 157.91,17.9028 158.5,19.5C 154.835,18.1581 151.169,16.6581 147.5,15C 146.619,14.2917 145.953,13.4584 145.5,12.5 Z"/></g>
<g><path style="opacity:1" fill="#92718c" d="M 127.5,10.5 C 127.586,11.4959 127.252,12.3292 126.5,13C 118.627,16.2881 110.96,19.9548 103.5,24C 102.207,24.49 100.873,24.6567 99.5,24.5C 100.574,23.1154 101.907,21.9487 103.5,21C 110.089,19.0388 116.089,16.0388 121.5,12C 123.436,11.187 125.436,10.687 127.5,10.5 Z"/></g>
<g><path style="opacity:1" fill="#7479a1" d="M 139.5,10.5 C 141.5,11.1667 143.5,11.8333 145.5,12.5C 145.953,13.4584 146.619,14.2917 147.5,15C 151.169,16.6581 154.835,18.1581 158.5,19.5C 163.784,20.9827 168.451,23.4827 172.5,27C 173.793,27.49 175.127,27.6567 176.5,27.5C 177.29,28.7942 178.29,29.9609 179.5,31C 182.881,31.9149 185.881,33.4149 188.5,35.5C 181.022,34.3242 174.356,31.4909 168.5,27C 160.207,22.3647 151.707,18.198 143,14.5C 141.598,13.3551 140.431,12.0217 139.5,10.5 Z"/></g>
<g><path style="opacity:1" fill="#ea5755" d="M 181.5,24.5 C 183.153,24.6596 184.486,25.3263 185.5,26.5C 185.5,27.8333 185.5,29.1667 185.5,30.5C 183.801,30.6602 182.134,30.4935 180.5,30C 179.529,28.5187 178.196,27.6854 176.5,27.5C 175.127,27.6567 173.793,27.49 172.5,27C 168.451,23.4827 163.784,20.9827 158.5,19.5C 157.91,17.9028 156.91,16.5695 155.5,15.5C 157.074,14.3691 158.741,14.2025 160.5,15C 165.841,17.1071 170.841,19.7738 175.5,23C 177.436,23.813 179.436,24.313 181.5,24.5 Z"/></g>
<g><path style="opacity:0.722" fill="#c96062" d="M 185.5,26.5 C 195.734,30.6165 205.734,35.2832 215.5,40.5C 214.749,41.5735 213.749,41.7401 212.5,41C 205.475,36.7974 198.142,33.2974 190.5,30.5C 189.5,30.8333 188.5,31.1667 187.5,31.5C 193.192,34.3413 198.525,37.6746 203.5,41.5C 202.127,41.6567 200.793,41.49 199.5,41C 196.048,38.6072 192.381,36.7739 188.5,35.5C 185.881,33.4149 182.881,31.9149 179.5,31C 178.29,29.9609 177.29,28.7942 176.5,27.5C 178.196,27.6854 179.529,28.5187 180.5,30C 182.134,30.4935 183.801,30.6602 185.5,30.5C 185.5,29.1667 185.5,27.8333 185.5,26.5 Z"/></g>
<g><path style="opacity:1" fill="#a26f84" d="M 95.5,26.5 C 95.5,26.8333 95.5,27.1667 95.5,27.5C 91.7152,29.6013 87.7152,31.2679 83.5,32.5C 86.8053,29.2143 90.8053,27.2143 95.5,26.5 Z"/></g>
<g><path style="opacity:1" fill="#e05958" d="M 132.5,-0.5 C 133.167,-0.5 133.833,-0.5 134.5,-0.5C 142.642,4.07186 150.975,8.40519 159.5,12.5C 155.124,13.3569 150.457,13.3569 145.5,12.5C 143.5,11.8333 141.5,11.1667 139.5,10.5C 136.796,7.69673 133.463,6.8634 129.5,8C 128.619,8.7083 127.953,9.54163 127.5,10.5C 125.436,10.687 123.436,11.187 121.5,12C 116.089,16.0388 110.089,19.0388 103.5,21C 101.907,21.9487 100.574,23.1154 99.5,24.5C 98.4863,25.6737 97.153,26.3404 95.5,26.5C 90.8053,27.2143 86.8053,29.2143 83.5,32.5C 76.0187,34.2407 69.352,37.574 63.5,42.5C 59.1184,43.8592 55.1184,46.0259 51.5,49C 48.7679,49.413 46.1013,50.0797 43.5,51C 39.5657,53.8005 35.5657,56.3005 31.5,58.5C 29.0733,58.523 26.74,59.023 24.5,60C 20.9901,62.0568 17.3235,63.7235 13.5,65C 12.6195,65.7083 11.9528,66.5416 11.5,67.5C 9.28428,68.2026 7.45095,69.5359 6,71.5C 5.50022,101.67 9.66689,131.003 18.5,159.5C 19.2254,163.676 20.5588,167.676 22.5,171.5C 22.8504,176.54 24.1837,181.206 26.5,185.5C 29.2161,198.193 34.2161,209.86 41.5,220.5C 44.2371,224.474 47.0704,228.474 50,232.5C 51.3078,239.283 54.4744,244.95 59.5,249.5C 60.3593,253.892 62.6927,257.225 66.5,259.5C 69.6977,263.355 73.0311,267.188 76.5,271C 84.0726,278.412 92.0726,285.245 100.5,291.5C 102.531,295.034 105.531,297.2 109.5,298C 114.837,302.003 120.504,305.503 126.5,308.5C 132.557,310.478 137.891,309.478 142.5,305.5C 142.833,305.5 143.167,305.5 143.5,305.5C 149.118,301.882 154.452,297.882 159.5,293.5C 159.5,293.167 159.5,292.833 159.5,292.5C 165.937,289.603 171.27,285.27 175.5,279.5C 178.567,277.879 181.401,275.879 184,273.5C 189.949,265.217 196.616,257.55 204,250.5C 205.295,247.708 206.795,245.042 208.5,242.5C 211.159,235.9 215.326,230.233 221,225.5C 221.384,222.94 222.217,220.606 223.5,218.5C 224.942,217.18 225.608,215.514 225.5,213.5C 229.191,209.455 231.858,204.789 233.5,199.5C 234.458,199.047 235.292,198.381 236,197.5C 239.223,190.331 241.723,182.998 243.5,175.5C 246.101,166.364 249.101,157.364 252.5,148.5C 253.989,144.208 255.323,139.875 256.5,135.5C 256.008,139.29 256.841,139.956 259,137.5C 259.993,133.558 260.66,129.558 261,125.5C 261.383,124.944 261.883,124.611 262.5,124.5C 248.157,205.407 207.49,269.24 140.5,316C 137.454,318.174 134.12,318.841 130.5,318C 99.4258,302.26 73.9258,280.093 54,251.5C 29.3721,213.634 13.3721,172.3 6,127.5C 3.38924,110.738 1.22257,94.0716 -0.5,77.5C -0.5,74.1667 -0.5,70.8333 -0.5,67.5C 43.8365,44.5 88.1698,21.8333 132.5,-0.5 Z M 137.5,126.5 C 137.833,126.5 138.167,126.5 138.5,126.5C 142.55,130.88 146.55,135.213 150.5,139.5C 148.871,137.94 147.704,138.273 147,140.5C 146.171,161.671 146.337,182.671 147.5,203.5C 147.804,204.15 148.137,204.817 148.5,205.5C 147.24,206.382 146.074,207.382 145,208.5C 144.5,194.837 144.333,181.171 144.5,167.5C 144.292,158.751 144.292,150.085 144.5,141.5C 144.663,139.143 144.497,136.81 144,134.5C 142.488,132.043 141.154,132.043 140,134.5C 139.333,159.833 139.333,185.167 140,210.5C 141.967,211.731 141.801,212.731 139.5,213.5C 138.5,193.178 138.167,172.844 138.5,152.5C 138.336,143.821 138.003,135.154 137.5,126.5 Z M 150.5,139.5 C 152.943,142.052 154.61,145.052 155.5,148.5C 153.926,148.937 152.759,149.937 152,151.5C 151.503,149.19 151.337,146.857 151.5,144.5C 151.167,143.167 150.833,141.833 150.5,140.5C 150.5,140.167 150.5,139.833 150.5,139.5 Z M 160.5,156.5 C 161.722,163.884 161.722,171.217 160.5,178.5C 160.308,182.102 158.974,185.102 156.5,187.5C 156.824,176.109 156.824,164.775 156.5,153.5C 157.117,153.389 157.617,153.056 158,152.5C 158.608,154.066 159.442,155.4 160.5,156.5 Z M 153.5,193.5 C 154.326,195.548 153.659,197.215 151.5,198.5C 151.337,196.143 151.503,193.81 152,191.5C 152.278,192.416 152.778,193.082 153.5,193.5 Z M 111.5,222.5 C 110.788,223.739 109.788,224.239 108.5,224C 109.464,222.275 110.131,220.441 110.5,218.5C 112.059,216.392 113.392,214.059 114.5,211.5C 115.002,210.479 115.668,210.312 116.5,211C 114.692,214.781 113.026,218.615 111.5,222.5 Z M 153.5,215.5 C 155.104,216.287 155.771,217.62 155.5,219.5C 154.326,218.486 153.66,217.153 153.5,215.5 Z M 156.5,221.5 C 157.167,221.5 157.5,221.833 157.5,222.5C 157.5,223.167 157.833,223.5 158.5,223.5C 158.158,224.338 157.492,224.672 156.5,224.5C 156.5,223.5 156.5,222.5 156.5,221.5 Z"/></g>
<g><path style="opacity:1" fill="#98718b" d="M 139.5,10.5 C 135.528,9.37966 131.528,9.37966 127.5,10.5C 127.953,9.54163 128.619,8.7083 129.5,8C 133.463,6.8634 136.796,7.69673 139.5,10.5 Z"/></g>
<g><path style="opacity:1" fill="#6d78a3" d="M 95.5,27.5 C 91.3334,31.4057 86.3334,33.9057 80.5,35C 76.6586,39.4179 71.9919,42.5846 66.5,44.5C 64.1944,44.9926 61.861,45.3259 59.5,45.5C 61.0764,44.8571 62.4097,43.8571 63.5,42.5C 69.352,37.574 76.0187,34.2407 83.5,32.5C 87.7152,31.2679 91.7152,29.6013 95.5,27.5 Z"/></g>
<g><path style="opacity:1" fill="#98738d" d="M 63.5,42.5 C 62.4097,43.8571 61.0764,44.8571 59.5,45.5C 53.3572,49.5064 46.6905,52.6731 39.5,55C 38.695,56.1127 38.0283,57.2794 37.5,58.5C 35.5,58.5 33.5,58.5 31.5,58.5C 35.5657,56.3005 39.5657,53.8005 43.5,51C 46.1013,50.0797 48.7679,49.413 51.5,49C 55.1184,46.0259 59.1184,43.8592 63.5,42.5 Z"/></g>
<g><path style="opacity:1" fill="#3186c4" d="M 69.5,77.5 C 73.5172,75.1391 77.5172,72.8058 81.5,70.5C 84.2165,70.3215 86.8832,69.8215 89.5,69C 90.0609,66.4824 90.3943,63.9824 90.5,61.5C 96.883,63.9912 103.383,63.9912 110,61.5C 112.411,63.1534 113.578,62.4867 113.5,59.5C 114.833,59.5 116.167,59.5 117.5,59.5C 117.5,60.8333 117.5,62.1667 117.5,63.5C 114.162,63.1091 113.162,64.2757 114.5,67C 114.138,68.2247 113.638,69.3914 113,70.5C 108.373,73.3594 104.539,77.026 101.5,81.5C 101.167,81.5 100.833,81.5 100.5,81.5C 100.389,80.8826 100.056,80.3826 99.5,80C 96.7333,79.9444 94.0666,79.7777 91.5,79.5C 90.1326,82.252 87.4659,84.0853 83.5,85C 83.8333,85.3333 84.1667,85.6667 84.5,86C 83.552,86.4828 82.552,86.6495 81.5,86.5C 81.5,88.1667 81.5,89.8333 81.5,91.5C 78.4816,91.3354 75.4816,91.502 72.5,92C 71.1991,93.6155 71.1991,95.1155 72.5,96.5C 72.5,97.5 72.5,98.5 72.5,99.5C 72.1667,99.5 71.8333,99.5 71.5,99.5C 68.5948,98.2995 65.5948,98.4661 62.5,100C 61.3702,104.002 59.8702,107.836 58,111.5C 57.8236,108.118 57.3236,104.785 56.5,101.5C 54.0598,110.668 50.7265,119.334 46.5,127.5C 44.9084,130.966 44.2417,134.633 44.5,138.5C 47.3636,139.677 50.3636,140.677 53.5,141.5C 55.2788,140.606 56.6121,139.273 57.5,137.5C 58.4972,137.53 59.1639,137.03 59.5,136C 60.9296,130.801 62.9296,125.968 65.5,121.5C 66.9986,120.322 67.9986,118.655 68.5,116.5C 71.6828,115.81 74.1828,114.144 76,111.5C 76.8699,112.108 77.3699,112.941 77.5,114C 75.7746,116.886 75.1079,120.052 75.5,123.5C 73.8546,124.479 72.5213,125.812 71.5,127.5C 70.914,127.291 70.414,126.957 70,126.5C 69.5674,130.268 68.234,133.601 66,136.5C 65.5034,138.81 65.3367,141.143 65.5,143.5C 64.5,143.5 63.5,143.5 62.5,143.5C 55.7039,168.96 59.7039,192.293 74.5,213.5C 73.7703,215.045 72.437,215.878 70.5,216C 72.1134,218.228 72.78,220.728 72.5,223.5C 71.1266,223.657 69.7932,223.49 68.5,223C 69.6956,222.346 69.6956,221.846 68.5,221.5C 67.8333,222.5 67.1667,223.5 66.5,224.5C 65.3044,224.154 65.3044,223.654 66.5,223C 62.648,220.074 63.3147,218.074 68.5,217C 70.2074,212.519 68.5408,210.353 63.5,210.5C 62.3263,209.486 61.6596,208.153 61.5,206.5C 62.1667,204.5 62.8333,202.5 63.5,200.5C 62.0695,200.579 60.7362,200.246 59.5,199.5C 58.5887,195.834 58.422,192.168 59,188.5C 57.1197,189.93 55.6197,189.596 54.5,187.5C 56.1837,184.388 56.8503,181.054 56.5,177.5C 54.396,177.201 52.396,177.534 50.5,178.5C 47.7978,181.701 44.6312,184.368 41,186.5C 40.1725,191.508 42.3391,193.842 47.5,193.5C 45.3468,196.503 43.8468,199.836 43,203.5C 40.8404,206.081 38.6737,206.081 36.5,203.5C 35.3954,199.45 34.3954,195.45 33.5,191.5C 32.5,191.5 31.5,191.5 30.5,191.5C 30.8432,189.517 30.1765,188.183 28.5,187.5C 28.5,187.167 28.5,186.833 28.5,186.5C 24.5996,170.645 20.2662,154.979 15.5,139.5C 14.4681,127.2 12.4681,115.2 9.5,103.5C 8.73465,100.904 8.40132,98.2372 8.5,95.5C 8.06476,87.3888 8.56476,79.3888 10,71.5C 15.3688,67.7324 21.2022,64.899 27.5,63C 28.7305,61.5952 30.0639,60.4286 31.5,59.5C 31.5,59.1667 31.5,58.8333 31.5,58.5C 33.5,58.5 35.5,58.5 37.5,58.5C 40.8434,57.941 43.8434,56.6077 46.5,54.5C 48.2362,56.6369 50.2362,57.3036 52.5,56.5C 53.8333,58.5 55.1667,60.5 56.5,62.5C 58.7094,63.1062 60.876,63.7728 63,64.5C 64.5161,68.1054 65.8494,71.7721 67,75.5C 67.4169,76.756 68.2502,77.4226 69.5,77.5 Z"/></g>
<g><path style="opacity:1" fill="#3186c4" d="M 139.5,10.5 C 140.431,12.0217 141.598,13.3551 143,14.5C 151.707,18.198 160.207,22.3647 168.5,27C 174.356,31.4909 181.022,34.3242 188.5,35.5C 188.297,37.3904 188.963,38.8904 190.5,40C 197.363,40.8281 203.03,43.8281 207.5,49C 215.379,52.4383 223.379,55.6049 231.5,58.5C 232.386,59.325 232.719,60.325 232.5,61.5C 234.806,61.9926 237.139,62.3259 239.5,62.5C 239.222,67.9146 241.556,71.5813 246.5,73.5C 247.167,73.1667 247.833,72.8333 248.5,72.5C 247.754,71.2638 247.421,69.9305 247.5,68.5C 250.832,70.2466 254.332,71.9133 258,73.5C 258.167,77.1667 258.333,80.8333 258.5,84.5C 257.202,96.4537 256.369,108.454 256,120.5C 252.575,131.197 250.408,142.197 249.5,153.5C 248.5,153.5 247.5,153.5 246.5,153.5C 246.275,160.953 245.275,168.286 243.5,175.5C 241.424,181.015 238.758,186.348 235.5,191.5C 234.265,191.721 233.265,192.388 232.5,193.5C 231.548,191.955 231.215,190.288 231.5,188.5C 230.167,188.5 228.833,188.5 227.5,188.5C 227.665,185.482 227.498,182.482 227,179.5C 225.806,177.475 224.306,177.141 222.5,178.5C 221.757,177.092 220.923,175.759 220,174.5C 218.98,180.607 217.146,180.94 214.5,175.5C 213.232,176.428 211.899,176.595 210.5,176C 210.413,169.37 210.579,162.536 211,155.5C 211.308,154.692 211.808,154.025 212.5,153.5C 212.964,155.975 213.964,157.975 215.5,159.5C 216.586,159.38 217.253,158.713 217.5,157.5C 216.731,154.885 216.397,152.219 216.5,149.5C 218.806,149.007 221.139,148.674 223.5,148.5C 224.833,148.5 226.167,148.5 227.5,148.5C 227.714,146.856 227.38,145.356 226.5,144C 224.343,143.922 222.343,143.755 220.5,143.5C 221.127,142.583 221.461,141.583 221.5,140.5C 222.715,136.967 222.715,133.301 221.5,129.5C 221.04,126.043 219.04,124.377 215.5,124.5C 215.511,122.453 215.844,120.453 216.5,118.5C 215.238,115.978 214.571,113.311 214.5,110.5C 212.585,110.216 210.919,110.549 209.5,111.5C 208.508,111.672 207.842,111.338 207.5,110.5C 206.792,107.962 206.459,105.462 206.5,103C 203.518,102.502 200.518,102.335 197.5,102.5C 197.5,99.8333 197.5,97.1667 197.5,94.5C 195.856,94.2865 194.356,94.6198 193,95.5C 192.749,93.567 192.249,91.7337 191.5,90C 188.689,87.3379 185.356,85.8379 181.5,85.5C 180.091,83.6951 179.591,81.6951 180,79.5C 181.241,81.4206 182.741,81.754 184.5,80.5C 183.262,77.8345 183.262,75.1678 184.5,72.5C 188.571,73.8615 191.905,76.1948 194.5,79.5C 197.446,80.6548 200.446,80.8214 203.5,80C 203.957,79.586 204.291,79.086 204.5,78.5C 203.311,77.5713 201.978,77.238 200.5,77.5C 199.789,73.7193 200.955,70.7193 204,68.5C 204.333,68.8333 204.667,69.1667 205,69.5C 204.299,64.3742 206.466,61.3742 211.5,60.5C 212.76,58.6471 212.76,56.8138 211.5,55C 207.572,53.1984 203.572,51.6984 199.5,50.5C 198.167,50.5 197.5,51.1667 197.5,52.5C 195.859,54.2029 194.859,56.3695 194.5,59C 191.55,60.7136 188.55,60.7136 185.5,59C 186.766,58.6905 187.933,58.1905 189,57.5C 190.597,54.7084 191.597,51.7084 192,48.5C 194.597,47.5856 194.93,45.919 193,43.5C 192.333,44.1667 191.667,44.8333 191,45.5C 184.505,40.4859 177.005,37.8192 168.5,37.5C 164.103,34.4904 159.103,32.8237 153.5,32.5C 149.204,33.7013 144.87,34.7013 140.5,35.5C 132.278,33.216 123.945,32.8827 115.5,34.5C 109.91,33.7309 104.243,33.7309 98.5,34.5C 98.3505,35.552 98.5172,36.552 99,37.5C 99.3333,37.1667 99.6667,36.8333 100,36.5C 100.935,39.1025 102.602,41.1025 105,42.5C 106.068,45.6043 106.901,48.771 107.5,52C 105.906,56.6368 102.573,58.4701 97.5,57.5C 95.53,53.3051 93.53,48.9717 91.5,44.5C 91.8757,42.6171 92.8757,41.1171 94.5,40C 91.464,40.0052 88.464,40.5052 85.5,41.5C 82.3356,41.5578 79.3356,42.2245 76.5,43.5C 77.0081,46.1761 77.1747,48.8428 77,51.5C 75.2835,50.4477 74.2835,51.1144 74,53.5C 73.6758,51.4311 72.8425,51.0977 71.5,52.5C 70.5481,50.9547 70.2148,49.288 70.5,47.5C 69.1266,47.6567 67.7932,47.49 66.5,47C 65.4019,46.2303 65.4019,45.397 66.5,44.5C 71.9919,42.5846 76.6586,39.4179 80.5,35C 86.3334,33.9057 91.3334,31.4057 95.5,27.5C 95.5,27.1667 95.5,26.8333 95.5,26.5C 97.153,26.3404 98.4863,25.6737 99.5,24.5C 100.873,24.6567 102.207,24.49 103.5,24C 110.96,19.9548 118.627,16.2881 126.5,13C 127.252,12.3292 127.586,11.4959 127.5,10.5C 131.528,9.37966 135.528,9.37966 139.5,10.5 Z"/></g>
<g><path style="opacity:1" fill="#e2f7fb" d="M 85.5,41.5 C 88.464,40.5052 91.464,40.0052 94.5,40C 92.8757,41.1171 91.8757,42.6171 91.5,44.5C 93.53,48.9717 95.53,53.3051 97.5,57.5C 100.862,58.8828 104.195,58.5495 107.5,56.5C 108.781,51.5202 108.781,46.5202 107.5,41.5C 106.449,39.4682 104.783,38.1348 102.5,37.5C 105.562,36.1302 108.729,35.1302 112,34.5C 111.307,36.3821 110.474,38.3821 109.5,40.5C 111.073,45.4103 111.573,50.4103 111,55.5C 105.702,61.9098 99.2022,63.5765 91.5,60.5C 89.1711,55.8422 86.8378,51.1756 84.5,46.5C 82.9223,45.7022 81.2556,45.2022 79.5,45C 81.4319,43.5415 83.4319,42.3748 85.5,41.5 Z"/></g>
<g><path style="opacity:1" fill="#3d87be" d="M 168.5,37.5 C 177.005,37.8192 184.505,40.4859 191,45.5C 191.667,44.8333 192.333,44.1667 193,43.5C 194.93,45.919 194.597,47.5856 192,48.5C 191.597,51.7084 190.597,54.7084 189,57.5C 187.933,58.1905 186.766,58.6905 185.5,59C 188.55,60.7136 191.55,60.7136 194.5,59C 194.859,56.3695 195.859,54.2029 197.5,52.5C 199.225,52.8425 199.725,53.8425 199,55.5C 195.691,59.7866 193.191,64.4533 191.5,69.5C 190.022,69.238 188.689,69.5713 187.5,70.5C 189.977,72.1427 192.31,73.976 194.5,76C 197.232,76.905 197.899,76.2383 196.5,74C 198.746,68.8403 201.746,64.1736 205.5,60C 207.256,59.7978 208.922,59.2978 210.5,58.5C 206.792,55.7767 203.125,53.1101 199.5,50.5C 203.572,51.6984 207.572,53.1984 211.5,55C 212.76,56.8138 212.76,58.6471 211.5,60.5C 206.466,61.3742 204.299,64.3742 205,69.5C 204.667,69.1667 204.333,68.8333 204,68.5C 200.955,70.7193 199.789,73.7193 200.5,77.5C 201.978,77.238 203.311,77.5713 204.5,78.5C 204.291,79.086 203.957,79.586 203.5,80C 200.446,80.8214 197.446,80.6548 194.5,79.5C 191.905,76.1948 188.571,73.8615 184.5,72.5C 183.262,75.1678 183.262,77.8345 184.5,80.5C 182.741,81.754 181.241,81.4206 180,79.5C 179.591,81.6951 180.091,83.6951 181.5,85.5C 179.419,84.2727 177.419,82.7727 175.5,81C 170.448,78.5676 165.781,79.0676 161.5,82.5C 162.415,83.3279 163.081,84.3279 163.5,85.5C 162.067,87.3365 161.567,89.3365 162,91.5C 162.671,92.2524 163.504,92.5858 164.5,92.5C 164.577,93.7498 165.244,94.5831 166.5,95C 169.226,95.1816 171.893,95.6816 174.5,96.5C 173.5,97.1667 172.5,97.8333 171.5,98.5C 171.709,99.086 172.043,99.586 172.5,100C 175.141,100.323 177.475,101.323 179.5,103C 181.473,103.495 183.473,103.662 185.5,103.5C 185.5,104.833 185.5,106.167 185.5,107.5C 188.545,107.492 191.545,107.159 194.5,106.5C 194.551,108.57 193.885,110.403 192.5,112C 193.101,114.637 194.767,115.804 197.5,115.5C 198.104,121.127 201.104,125.127 206.5,127.5C 207.982,131.344 208.815,135.344 209,139.5C 209.671,140.252 210.504,140.586 211.5,140.5C 213.366,141.014 215.2,141.68 217,142.5C 218.585,141.956 220.085,141.289 221.5,140.5C 221.461,141.583 221.127,142.583 220.5,143.5C 222.343,143.755 224.343,143.922 226.5,144C 227.38,145.356 227.714,146.856 227.5,148.5C 226.167,148.5 224.833,148.5 223.5,148.5C 224.278,147.844 224.944,147.011 225.5,146C 225.167,145.5 224.833,145 224.5,144.5C 221.209,145.382 217.876,146.048 214.5,146.5C 215.08,150.81 215.414,155.143 215.5,159.5C 213.964,157.975 212.964,155.975 212.5,153.5C 211.808,154.025 211.308,154.692 211,155.5C 210.579,162.536 210.413,169.37 210.5,176C 211.899,176.595 213.232,176.428 214.5,175.5C 217.146,180.94 218.98,180.607 220,174.5C 220.923,175.759 221.757,177.092 222.5,178.5C 224.306,177.141 225.806,177.475 227,179.5C 227.498,182.482 227.665,185.482 227.5,188.5C 228.833,188.5 230.167,188.5 231.5,188.5C 231.215,190.288 231.548,191.955 232.5,193.5C 233.265,192.388 234.265,191.721 235.5,191.5C 235.5,192.5 235.5,193.5 235.5,194.5C 233.505,196.641 231.505,198.975 229.5,201.5C 228.159,205.511 226.826,209.511 225.5,213.5C 225.608,215.514 224.942,217.18 223.5,218.5C 219.563,222.453 216.063,226.786 213,231.5C 210.859,235.104 209.026,238.771 207.5,242.5C 204.763,246.474 201.93,250.474 199,254.5C 196.894,257.118 194.394,259.118 191.5,260.5C 192.258,257.513 193.091,254.513 194,251.5C 195.699,250.594 197.533,250.261 199.5,250.5C 199.671,248.007 198.671,246.174 196.5,245C 198.514,243.204 200.681,242.704 203,243.5C 203.402,242.128 203.902,240.795 204.5,239.5C 202.602,238.266 200.935,238.599 199.5,240.5C 197.754,238.146 195.421,237.146 192.5,237.5C 192.82,240.898 192.487,244.232 191.5,247.5C 183.251,251.551 177.917,249.217 175.5,240.5C 175.543,239.584 175.876,238.917 176.5,238.5C 177.845,242.011 179.845,245.178 182.5,248C 189.519,247.309 192.352,243.476 191,236.5C 187.168,233.875 183.335,233.875 179.5,236.5C 179.714,234.856 179.38,233.356 178.5,232C 181.413,232.29 184.413,232.457 187.5,232.5C 187.5,231.167 187.5,229.833 187.5,228.5C 188.5,228.5 189.5,228.5 190.5,228.5C 189.725,235.56 192.725,238.06 199.5,236C 204.235,233.411 205.568,229.577 203.5,224.5C 201.057,222.945 198.39,222.278 195.5,222.5C 196.172,221.733 197.005,221.066 198,220.5C 198.192,218.423 198.692,216.423 199.5,214.5C 201.397,213.632 202.73,212.299 203.5,210.5C 203.369,211.376 203.702,212.043 204.5,212.5C 207.329,213.747 209.995,215.247 212.5,217C 214.944,217.399 215.61,216.566 214.5,214.5C 212.004,213.42 209.67,212.086 207.5,210.5C 211.162,209.003 214.828,207.503 218.5,206C 219.731,204.817 219.731,203.651 218.5,202.5C 215.983,201.105 213.316,200.105 210.5,199.5C 209.068,199.733 208.568,200.4 209,201.5C 211.052,202.723 213.219,203.723 215.5,204.5C 212.012,206.29 208.346,207.623 204.5,208.5C 205.97,207.022 207.637,205.689 209.5,204.5C 206.658,203.996 205.325,202.329 205.5,199.5C 204.167,199.5 202.833,199.5 201.5,199.5C 200.97,202.682 199.97,205.682 198.5,208.5C 197.041,208.433 195.708,208.766 194.5,209.5C 196.318,205.884 197.984,202.217 199.5,198.5C 201.136,197.251 202.303,195.584 203,193.5C 204,190.167 205,186.833 206,183.5C 206.823,175.323 206.656,167.323 205.5,159.5C 205.664,156.813 205.497,154.146 205,151.5C 203.218,148.368 202.052,145.035 201.5,141.5C 201.47,138.148 200.137,135.482 197.5,133.5C 196.471,130.109 194.471,127.443 191.5,125.5C 187.897,120.558 183.897,115.892 179.5,111.5C 175.055,106.769 169.721,103.269 163.5,101C 157.005,98.5763 150.338,97.0763 143.5,96.5C 132.562,94.5291 121.896,95.5291 111.5,99.5C 105.644,100.29 100.31,102.29 95.5,105.5C 91.4871,105.492 88.4871,107.159 86.5,110.5C 83.5,111.833 80.5,111.833 77.5,110.5C 78.154,108.885 78.654,107.218 79,105.5C 80.3333,106.833 81.6667,106.833 83,105.5C 83.7429,103.559 83.5762,101.726 82.5,100C 83.5,99.3333 84.5,99.3333 85.5,100C 87.2117,102.692 89.2117,103.026 91.5,101C 90.5939,99.3005 90.2606,97.4672 90.5,95.5C 91.5,95.5 92.5,95.5 93.5,95.5C 102.828,94.2406 105.494,89.5739 101.5,81.5C 104.539,77.026 108.373,73.3594 113,70.5C 113.638,69.3914 114.138,68.2247 114.5,67C 113.162,64.2757 114.162,63.1091 117.5,63.5C 117.5,62.1667 117.5,60.8333 117.5,59.5C 116.167,59.5 114.833,59.5 113.5,59.5C 113.578,62.4867 112.411,63.1534 110,61.5C 103.383,63.9912 96.883,63.9912 90.5,61.5C 90.3943,63.9824 90.0609,66.4824 89.5,69C 86.8832,69.8215 84.2165,70.3215 81.5,70.5C 84.0286,68.7345 86.3619,66.7345 88.5,64.5C 88.363,62.8927 87.6964,61.5594 86.5,60.5C 84.5279,65.6431 80.8613,68.6431 75.5,69.5C 75.5086,67.6916 75.0086,66.0249 74,64.5C 71.5843,61.3372 69.4177,58.0039 67.5,54.5C 68.1667,53.5 68.8333,52.5 69.5,51.5C 69.1667,51.1667 68.8333,50.8333 68.5,50.5C 65.0375,53.3976 61.2041,55.731 57,57.5C 56.8333,57.8333 56.6667,58.1667 56.5,58.5C 58.0777,59.2978 59.7444,59.7978 61.5,60C 65.1342,64.1091 68.1342,68.6091 70.5,73.5C 70.1543,74.8492 69.821,76.1825 69.5,77.5C 68.2502,77.4226 67.4169,76.756 67,75.5C 65.8494,71.7721 64.5161,68.1054 63,64.5C 60.876,63.7728 58.7094,63.1062 56.5,62.5C 55.1667,60.5 53.8333,58.5 52.5,56.5C 50.2362,57.3036 48.2362,56.6369 46.5,54.5C 43.8434,56.6077 40.8434,57.941 37.5,58.5C 38.0283,57.2794 38.695,56.1127 39.5,55C 46.6905,52.6731 53.3572,49.5064 59.5,45.5C 61.861,45.3259 64.1944,44.9926 66.5,44.5C 65.4019,45.397 65.4019,46.2303 66.5,47C 67.7932,47.49 69.1266,47.6567 70.5,47.5C 70.2148,49.288 70.5481,50.9547 71.5,52.5C 72.8425,51.0977 73.6758,51.4311 74,53.5C 74.2835,51.1144 75.2835,50.4477 77,51.5C 77.1747,48.8428 77.0081,46.1761 76.5,43.5C 79.3356,42.2245 82.3356,41.5578 85.5,41.5C 83.4319,42.3748 81.4319,43.5415 79.5,45C 81.2556,45.2022 82.9223,45.7022 84.5,46.5C 86.8378,51.1756 89.1711,55.8422 91.5,60.5C 99.2022,63.5765 105.702,61.9098 111,55.5C 111.573,50.4103 111.073,45.4103 109.5,40.5C 110.474,38.3821 111.307,36.3821 112,34.5C 108.729,35.1302 105.562,36.1302 102.5,37.5C 104.783,38.1348 106.449,39.4682 107.5,41.5C 108.781,46.5202 108.781,51.5202 107.5,56.5C 104.195,58.5495 100.862,58.8828 97.5,57.5C 102.573,58.4701 105.906,56.6368 107.5,52C 106.901,48.771 106.068,45.6043 105,42.5C 102.602,41.1025 100.935,39.1025 100,36.5C 99.6667,36.8333 99.3333,37.1667 99,37.5C 98.5172,36.552 98.3505,35.552 98.5,34.5C 104.243,33.7309 109.91,33.7309 115.5,34.5C 117.19,35.1031 118.69,36.1031 120,37.5C 121.162,43.4449 121.662,49.4449 121.5,55.5C 120.448,55.3505 119.448,55.5172 118.5,56C 121.333,56.1667 124.167,56.3333 127,56.5C 131.331,56.6698 135.498,56.0031 139.5,54.5C 143.146,48.6646 141.48,45.1646 134.5,44C 139.051,42.9513 141.051,40.118 140.5,35.5C 144.87,34.7013 149.204,33.7013 153.5,32.5C 159.103,32.8237 164.103,34.4904 168.5,37.5 Z"/></g>
<g><path style="opacity:1" fill="#e3f8fb" d="M 140.5,35.5 C 141.051,40.118 139.051,42.9513 134.5,44C 141.48,45.1646 143.146,48.6646 139.5,54.5C 135.498,56.0031 131.331,56.6698 127,56.5C 124.167,56.3333 121.333,56.1667 118.5,56C 119.448,55.5172 120.448,55.3505 121.5,55.5C 121.662,49.4449 121.162,43.4449 120,37.5C 118.69,36.1031 117.19,35.1031 115.5,34.5C 123.945,32.8827 132.278,33.216 140.5,35.5 Z"/></g>
<g><path style="opacity:1" fill="#e4f6f9" d="M 147.5,35.5 C 152.458,34.1572 157.458,34.4906 162.5,36.5C 161.372,37.2621 160.205,37.9288 159,38.5C 158.221,43.1157 157.055,47.6157 155.5,52C 155.305,54.3523 155.972,56.3523 157.5,58C 153.088,58.3942 148.755,57.8942 144.5,56.5C 145.689,55.5713 147.022,55.238 148.5,55.5C 150.047,48.935 150.714,42.2684 150.5,35.5C 149.5,35.5 148.5,35.5 147.5,35.5 Z"/></g>
<g><path style="opacity:1" fill="#e6f7fa" d="M 168.5,37.5 C 171.906,39.109 175.573,40.2756 179.5,41C 183.158,42.4425 186.325,44.6092 189,47.5C 189.948,53.3832 187.448,55.7166 181.5,54.5C 182.606,58.8024 183.606,63.1357 184.5,67.5C 181.772,68.9402 179.605,68.2735 178,65.5C 177.938,61.6115 176.771,58.1115 174.5,55C 173.551,54.3828 172.718,54.5494 172,55.5C 171.161,58.1396 171.661,60.4729 173.5,62.5C 172.833,62.8333 172.167,63.1667 171.5,63.5C 167.936,61.8849 164.27,60.5516 160.5,59.5C 161.689,58.5713 163.022,58.238 164.5,58.5C 166.261,53.4674 167.594,48.3007 168.5,43C 168.646,40.9658 167.98,39.2991 166.5,38C 167.094,37.5357 167.761,37.369 168.5,37.5 Z"/></g>
<g><path style="opacity:1" fill="#4287ba" d="M 176.5,43.5 C 182.493,43.6722 183.827,46.1722 180.5,51C 178.527,51.4955 176.527,51.6621 174.5,51.5C 174.107,48.4867 174.774,45.8201 176.5,43.5 Z"/></g>
<g><path style="opacity:1" fill="#4685b4" d="M 127.5,45.5 C 134.486,45.331 136.153,48.1643 132.5,54C 131.056,54.7805 129.723,54.6139 128.5,53.5C 127.607,50.9159 127.274,48.2492 127.5,45.5 Z"/></g>
<g><path style="opacity:1" fill="#4d88b4" d="M 127.5,35.5 C 133.918,36.0326 134.918,38.5326 130.5,43C 129.552,43.4828 128.552,43.6495 127.5,43.5C 127.5,40.8333 127.5,38.1667 127.5,35.5 Z"/></g>
<g><path style="opacity:1" fill="#b76a7c" d="M 233.5,57.5 C 236.949,59.1169 240.616,60.2835 244.5,61C 246.747,62.2775 248.747,63.7775 250.5,65.5C 245.577,63.7162 240.577,61.8829 235.5,60C 234.619,59.2917 233.953,58.4584 233.5,57.5 Z"/></g>
<g><path style="opacity:1" fill="#c86571" d="M 31.5,58.5 C 31.5,58.8333 31.5,59.1667 31.5,59.5C 24.8106,61.9556 18.1439,64.6222 11.5,67.5C 11.9528,66.5416 12.6195,65.7083 13.5,65C 17.3235,63.7235 20.9901,62.0568 24.5,60C 26.74,59.023 29.0733,58.523 31.5,58.5 Z"/></g>
<g><path style="opacity:1" fill="#5b7ead" d="M 188.5,35.5 C 192.381,36.7739 196.048,38.6072 199.5,41C 200.793,41.49 202.127,41.6567 203.5,41.5C 205.764,43.3137 208.097,45.147 210.5,47C 216.06,49.2788 221.726,51.2788 227.5,53C 229.66,54.332 231.66,55.832 233.5,57.5C 233.953,58.4584 234.619,59.2917 235.5,60C 240.577,61.8829 245.577,63.7162 250.5,65.5C 253.382,67.8628 256.549,69.8628 260,71.5C 260.5,79.4931 260.666,87.4931 260.5,95.5C 260.5,97.5 260.5,99.5 260.5,101.5C 257.93,109.84 256.93,118.507 257.5,127.5C 257.167,127.5 256.833,127.5 256.5,127.5C 255.224,129.562 254.39,131.896 254,134.5C 253.462,139.171 252.962,143.838 252.5,148.5C 249.101,157.364 246.101,166.364 243.5,175.5C 245.275,168.286 246.275,160.953 246.5,153.5C 247.5,153.5 248.5,153.5 249.5,153.5C 250.408,142.197 252.575,131.197 256,120.5C 256.369,108.454 257.202,96.4537 258.5,84.5C 258.333,80.8333 258.167,77.1667 258,73.5C 254.332,71.9133 250.832,70.2466 247.5,68.5C 247.421,69.9305 247.754,71.2638 248.5,72.5C 247.833,72.8333 247.167,73.1667 246.5,73.5C 241.556,71.5813 239.222,67.9146 239.5,62.5C 237.139,62.3259 234.806,61.9926 232.5,61.5C 232.719,60.325 232.386,59.325 231.5,58.5C 223.379,55.6049 215.379,52.4383 207.5,49C 203.03,43.8281 197.363,40.8281 190.5,40C 188.963,38.8904 188.297,37.3904 188.5,35.5 Z"/></g>
<g><path style="opacity:1" fill="#c36876" d="M 250.5,65.5 C 254.897,66.2828 258.73,68.2828 262,71.5C 262.156,79.6718 261.656,87.6718 260.5,95.5C 260.666,87.4931 260.5,79.4931 260,71.5C 256.549,69.8628 253.382,67.8628 250.5,65.5 Z"/></g>
<g><path style="opacity:1" fill="#e9f9fb" d="M 199.5,50.5 C 203.125,53.1101 206.792,55.7767 210.5,58.5C 208.922,59.2978 207.256,59.7978 205.5,60C 201.746,64.1736 198.746,68.8403 196.5,74C 197.899,76.2383 197.232,76.905 194.5,76C 192.31,73.976 189.977,72.1427 187.5,70.5C 188.689,69.5713 190.022,69.238 191.5,69.5C 193.191,64.4533 195.691,59.7866 199,55.5C 199.725,53.8425 199.225,52.8425 197.5,52.5C 197.5,51.1667 198.167,50.5 199.5,50.5 Z"/></g>
<g><path style="opacity:1" fill="#e6f8fb" d="M 81.5,70.5 C 77.5172,72.8058 73.5172,75.1391 69.5,77.5C 69.821,76.1825 70.1543,74.8492 70.5,73.5C 68.1342,68.6091 65.1342,64.1091 61.5,60C 59.7444,59.7978 58.0777,59.2978 56.5,58.5C 56.6667,58.1667 56.8333,57.8333 57,57.5C 61.2041,55.731 65.0375,53.3976 68.5,50.5C 68.8333,50.8333 69.1667,51.1667 69.5,51.5C 68.8333,52.5 68.1667,53.5 67.5,54.5C 69.4177,58.0039 71.5843,61.3372 74,64.5C 75.0086,66.0249 75.5086,67.6916 75.5,69.5C 80.8613,68.6431 84.5279,65.6431 86.5,60.5C 87.6964,61.5594 88.363,62.8927 88.5,64.5C 86.3619,66.7345 84.0286,68.7345 81.5,70.5 Z"/></g>
<g><path style="opacity:0.703" fill="#d55956" d="M 247.5,57.5 C 254.45,60.3084 261.117,63.6417 267.5,67.5C 267.5,73.5 267.5,79.5 267.5,85.5C 266.23,97.6995 264.897,110.033 263.5,122.5C 262.839,120.866 262.506,119.033 262.5,117C 264.769,100.544 265.435,84.044 264.5,67.5C 260.326,65.2477 255.993,63.2477 251.5,61.5C 249.921,60.3331 248.588,58.9998 247.5,57.5 Z"/></g>
<g><path style="opacity:1" fill="#d1f4fd" d="M 136.5,74.5 C 137.552,74.3505 138.552,74.5172 139.5,75C 141.371,80.2699 143.705,80.6032 146.5,76C 147.5,75.3333 148.5,75.3333 149.5,76C 145.015,78.6242 143.015,82.4575 143.5,87.5C 142.5,87.5 141.5,87.5 140.5,87.5C 140.813,84.7531 140.48,82.0865 139.5,79.5C 138.048,78.0603 137.048,76.3936 136.5,74.5 Z"/></g>
<g><path style="opacity:1" fill="#d5f1f7" d="M 121.5,74.5 C 125.437,74.2065 129.27,74.5399 133,75.5C 133.756,77.8087 133.256,79.8087 131.5,81.5C 133.581,87.9352 132.581,88.1019 128.5,82C 127.207,81.51 125.873,81.3433 124.5,81.5C 124.799,83.604 124.466,85.604 123.5,87.5C 122.914,87.2907 122.414,86.9574 122,86.5C 121.501,82.5138 121.334,78.5138 121.5,74.5 Z"/></g>
<g><path style="opacity:1" fill="#4f81a0" d="M 124.5,76.5 C 126.5,76.5 128.5,76.5 130.5,76.5C 130.5,77.5 130.5,78.5 130.5,79.5C 128.5,79.5 126.5,79.5 124.5,79.5C 124.5,78.5 124.5,77.5 124.5,76.5 Z"/></g>
<g><path style="opacity:1" fill="#c3e1eb" d="M 108.5,76.5 C 113.976,77.6345 117.643,80.9678 119.5,86.5C 119,86.8333 118.5,87.1667 118,87.5C 114.036,84.526 110.869,85.1927 108.5,89.5C 107.366,85.1693 107.366,80.836 108.5,76.5 Z"/></g>
<g><path style="opacity:1" fill="#72779a" d="M 31.5,59.5 C 30.0639,60.4286 28.7305,61.5952 27.5,63C 21.2022,64.899 15.3688,67.7324 10,71.5C 8.56476,79.3888 8.06476,87.3888 8.5,95.5C 7.34387,87.6775 7.17721,79.6775 8,71.5C 9.37561,70.2949 10.5423,68.9616 11.5,67.5C 18.1439,64.6222 24.8106,61.9556 31.5,59.5 Z"/></g>
<g><path style="opacity:1" fill="#e95757" d="M 215.5,40.5 C 226.487,45.6589 237.153,51.3255 247.5,57.5C 248.588,58.9998 249.921,60.3331 251.5,61.5C 255.993,63.2477 260.326,65.2477 264.5,67.5C 265.435,84.044 264.769,100.544 262.5,117C 262.506,119.033 262.839,120.866 263.5,122.5C 263.167,123.167 262.833,123.833 262.5,124.5C 261.883,124.611 261.383,124.944 261,125.5C 260.66,129.558 259.993,133.558 259,137.5C 256.841,139.956 256.008,139.29 256.5,135.5C 256.5,132.833 256.5,130.167 256.5,127.5C 256.833,127.5 257.167,127.5 257.5,127.5C 259.411,119.079 260.411,110.412 260.5,101.5C 260.5,99.5 260.5,97.5 260.5,95.5C 261.656,87.6718 262.156,79.6718 262,71.5C 258.73,68.2828 254.897,66.2828 250.5,65.5C 248.747,63.7775 246.747,62.2775 244.5,61C 240.616,60.2835 236.949,59.1169 233.5,57.5C 231.66,55.832 229.66,54.332 227.5,53C 221.726,51.2788 216.06,49.2788 210.5,47C 208.097,45.147 205.764,43.3137 203.5,41.5C 198.525,37.6746 193.192,34.3413 187.5,31.5C 188.5,31.1667 189.5,30.8333 190.5,30.5C 198.142,33.2974 205.475,36.7974 212.5,41C 213.749,41.7401 214.749,41.5735 215.5,40.5 Z"/></g>
<g><path style="opacity:1" fill="#d3f1f9" d="M 100.5,81.5 C 100.833,81.5 101.167,81.5 101.5,81.5C 105.494,89.5739 102.828,94.2406 93.5,95.5C 92.1765,92.1829 90.8432,88.8496 89.5,85.5C 89.8178,84.3527 90.4844,83.5194 91.5,83C 94.4318,82.0467 97.4318,81.5467 100.5,81.5 Z"/></g>
<g><path style="opacity:1" fill="#4a82b0" d="M 95.5,83.5 C 100.213,83.4676 101.713,85.8009 100,90.5C 98.9148,91.2931 97.7481,91.9598 96.5,92.5C 94.5979,90.1328 93.2645,87.4661 92.5,84.5C 93.791,84.7373 94.791,84.404 95.5,83.5 Z"/></g>
<g><path style="opacity:1" fill="#4787b4" d="M 181.5,85.5 C 185.356,85.8379 188.689,87.3379 191.5,90C 192.249,91.7337 192.749,93.567 193,95.5C 194.356,94.6198 195.856,94.2865 197.5,94.5C 197.5,97.1667 197.5,99.8333 197.5,102.5C 200.518,102.335 203.518,102.502 206.5,103C 206.459,105.462 206.792,107.962 207.5,110.5C 200.916,111.668 199.082,115.335 202,121.5C 206.098,126.804 210.098,126.804 214,121.5C 214.943,117.054 213.443,113.721 209.5,111.5C 210.919,110.549 212.585,110.216 214.5,110.5C 214.571,113.311 215.238,115.978 216.5,118.5C 215.844,120.453 215.511,122.453 215.5,124.5C 219.04,124.377 221.04,126.043 221.5,129.5C 217.925,126.084 214.092,125.751 210,128.5C 209.19,132.69 209.69,136.69 211.5,140.5C 210.504,140.586 209.671,140.252 209,139.5C 208.815,135.344 207.982,131.344 206.5,127.5C 201.104,125.127 198.104,121.127 197.5,115.5C 194.767,115.804 193.101,114.637 192.5,112C 193.885,110.403 194.551,108.57 194.5,106.5C 191.545,107.159 188.545,107.492 185.5,107.5C 185.5,106.167 185.5,104.833 185.5,103.5C 183.473,103.662 181.473,103.495 179.5,103C 177.475,101.323 175.141,100.323 172.5,100C 172.043,99.586 171.709,99.086 171.5,98.5C 172.5,97.8333 173.5,97.1667 174.5,96.5C 171.893,95.6816 169.226,95.1816 166.5,95C 165.244,94.5831 164.577,93.7498 164.5,92.5C 163.504,92.5858 162.671,92.2524 162,91.5C 161.567,89.3365 162.067,87.3365 163.5,85.5C 163.081,84.3279 162.415,83.3279 161.5,82.5C 165.781,79.0676 170.448,78.5676 175.5,81C 177.419,82.7727 179.419,84.2727 181.5,85.5 Z"/></g>
<g><path style="opacity:1" fill="#c9eef9" d="M 164.5,92.5 C 163.766,91.2921 163.433,89.9587 163.5,88.5C 165.813,89.6683 168.146,91.0017 170.5,92.5C 170.833,92 171.167,91.5 171.5,91C 170.362,88.8626 168.862,87.0293 167,85.5C 166.316,84.2161 166.483,83.0495 167.5,82C 171.819,80.5405 174.819,81.8738 176.5,86C 176.167,86.5 175.833,87 175.5,87.5C 168.518,82.3172 168.018,82.9838 174,89.5C 174.833,92.8184 173.499,94.485 170,94.5C 167.991,94.2421 166.157,93.5755 164.5,92.5 Z"/></g>
<g><path style="opacity:1" fill="#c5eaf6" d="M 180.5,87.5 C 185.947,87.6212 189.281,90.2879 190.5,95.5C 189.5,95.5 188.5,95.5 187.5,95.5C 186.598,90.3572 184.098,89.3572 180,92.5C 178.72,97.921 180.887,99.921 186.5,98.5C 186.5,99.5 186.5,100.5 186.5,101.5C 178.799,101.638 175.633,97.9711 177,90.5C 178.145,89.3636 179.312,88.3636 180.5,87.5 Z"/></g>
<g><path style="opacity:1" fill="#c16979" d="M 143.5,96.5 C 136.416,95.8745 129.75,96.5411 123.5,98.5C 119.534,99.1621 115.534,99.4955 111.5,99.5C 121.896,95.5291 132.562,94.5291 143.5,96.5 Z"/></g>
<g><path style="opacity:1" fill="#e45958" d="M 143.5,96.5 C 156.267,99.5855 168.267,104.586 179.5,111.5C 183.897,115.892 187.897,120.558 191.5,125.5C 190.038,124.542 188.705,123.376 187.5,122C 185.443,121.695 183.443,121.695 181.5,122C 179.146,120.622 179.146,119.122 181.5,117.5C 179.826,114.476 177.159,112.643 173.5,112C 173.833,111.667 174.167,111.333 174.5,111C 171.773,110.182 169.106,110.348 166.5,111.5C 167.503,116.697 167.003,116.697 165,111.5C 164.616,117.194 164.616,122.86 165,128.5C 163.607,132.282 161.107,133.449 157.5,132C 156.364,133.145 155.364,134.312 154.5,135.5C 154.5,134.5 154.5,133.5 154.5,132.5C 154.5,131.833 154.5,131.167 154.5,130.5C 153.662,130.842 153.328,131.508 153.5,132.5C 153.5,132.833 153.5,133.167 153.5,133.5C 153.167,133.5 152.833,133.5 152.5,133.5C 150.473,133.662 148.473,133.495 146.5,133C 144.229,130.218 141.563,128.051 138.5,126.5C 137.145,123.482 134.812,122.149 131.5,122.5C 133.062,121.024 134.729,119.524 136.5,118C 137.793,117.51 139.127,117.343 140.5,117.5C 140.33,118.822 140.663,119.989 141.5,121C 140.692,121.308 140.025,121.808 139.5,122.5C 140.698,122.94 141.865,123.273 143,123.5C 143.494,125.134 143.66,126.801 143.5,128.5C 144.873,128.657 146.207,128.49 147.5,128C 146.253,126.506 146.253,125.006 147.5,123.5C 153.445,121.886 157.445,118.219 159.5,112.5C 158.191,110.267 156.191,108.933 153.5,108.5C 151.253,109.374 148.92,109.708 146.5,109.5C 146.36,107.876 147.027,106.71 148.5,106C 147.417,103.944 145.75,102.611 143.5,102C 143.833,101.667 144.167,101.333 144.5,101C 137.571,99.5114 130.571,98.6781 123.5,98.5C 129.75,96.5411 136.416,95.8745 143.5,96.5 Z M 154.5,130.5 C 153.986,128.488 153.82,126.488 154,124.5C 161.859,113.586 163.692,114.919 159.5,128.5C 157.446,128.365 155.779,129.032 154.5,130.5 Z"/></g>
<g><path style="opacity:1" fill="#96718d" d="M 143.5,96.5 C 150.338,97.0763 157.005,98.5763 163.5,101C 169.721,103.269 175.055,106.769 179.5,111.5C 168.267,104.586 156.267,99.5855 143.5,96.5 Z"/></g>
<g><path style="opacity:1" fill="#b86979" d="M 111.5,99.5 C 110.53,100.629 109.364,101.629 108,102.5C 98.9959,105.221 91.1626,109.888 84.5,116.5C 79.0675,122.587 74.0675,128.92 69.5,135.5C 71.317,131.199 73.6503,127.199 76.5,123.5C 77.5813,121.236 78.9146,119.069 80.5,117C 85.6767,113.314 90.6767,109.481 95.5,105.5C 100.31,102.29 105.644,100.29 111.5,99.5 Z"/></g>
<g><path style="opacity:1" fill="#d4f1f9" d="M 194.5,95.5 C 195.497,95.4701 196.164,95.9701 196.5,97C 193.317,101.437 194.484,104.27 200,105.5C 201.285,105.05 202.452,104.383 203.5,103.5C 204.583,104.365 204.749,105.365 204,106.5C 201.933,109.07 199.433,111.07 196.5,112.5C 196.167,112.167 195.833,111.833 195.5,111.5C 198.349,106.838 197.015,104.338 191.5,104C 190.692,105.706 189.359,106.539 187.5,106.5C 187.351,105.448 187.517,104.448 188,103.5C 190.379,100.959 192.546,98.2925 194.5,95.5 Z"/></g>
<g><path style="opacity:1" fill="#ef5553" d="M 123.5,98.5 C 130.571,98.6781 137.571,99.5114 144.5,101C 144.167,101.333 143.833,101.667 143.5,102C 145.75,102.611 147.417,103.944 148.5,106C 147.027,106.71 146.36,107.876 146.5,109.5C 148.92,109.708 151.253,109.374 153.5,108.5C 156.191,108.933 158.191,110.267 159.5,112.5C 157.445,118.219 153.445,121.886 147.5,123.5C 146.253,125.006 146.253,126.506 147.5,128C 146.207,128.49 144.873,128.657 143.5,128.5C 143.66,126.801 143.494,125.134 143,123.5C 141.865,123.273 140.698,122.94 139.5,122.5C 140.025,121.808 140.692,121.308 141.5,121C 140.663,119.989 140.33,118.822 140.5,117.5C 139.127,117.343 137.793,117.51 136.5,118C 134.729,119.524 133.062,121.024 131.5,122.5C 128.167,122.5 126.5,124.167 126.5,127.5C 123.459,127.406 121.793,128.906 121.5,132C 119.833,132.667 118.167,132.667 116.5,132C 115.712,128.924 115.212,125.758 115,122.5C 112.598,119.721 110.098,117.055 107.5,114.5C 105.545,115.28 104.545,116.78 104.5,119C 104.843,122.565 105.509,126.065 106.5,129.5C 108.195,130.174 109.862,130.841 111.5,131.5C 112.71,133.552 113.71,135.718 114.5,138C 112.892,140.185 111.892,142.685 111.5,145.5C 106.814,154.931 104.814,164.931 105.5,175.5C 105.378,180.232 105.878,184.898 107,189.5C 110.459,194.246 113.293,199.413 115.5,205C 113.582,209.414 111.915,213.914 110.5,218.5C 110.131,220.441 109.464,222.275 108.5,224C 109.788,224.239 110.788,223.739 111.5,222.5C 114.535,221.044 115.869,218.877 115.5,216C 116.889,214.043 118.389,212.21 120,210.5C 124.772,212.937 128.605,216.437 131.5,221C 133.5,221.667 135.5,221.667 137.5,221C 140.688,217.919 144.021,215.086 147.5,212.5C 148.672,212.919 149.672,213.585 150.5,214.5C 152.01,218.196 154.01,221.529 156.5,224.5C 157.492,224.672 158.158,224.338 158.5,223.5C 159.404,224.209 159.737,225.209 159.5,226.5C 154.162,225.388 148.829,225.388 143.5,226.5C 146.583,226.963 149.249,228.129 151.5,230C 149.833,230.333 148.167,230.667 146.5,231C 147.672,231.419 148.672,232.085 149.5,233C 147.884,233.615 146.551,234.615 145.5,236C 148.209,235.489 150.876,234.655 153.5,233.5C 155.693,234.554 157.193,234.22 158,232.5C 159.356,233.38 160.856,233.714 162.5,233.5C 161.1,234.1 160.1,235.1 159.5,236.5C 155.899,237.463 152.233,238.13 148.5,238.5C 138.828,238.666 129.161,238.5 119.5,238C 116.467,236.156 113.134,235.156 109.5,235C 107.51,233.249 105.177,232.249 102.5,232C 101.5,231 100.5,230 99.5,229C 95.3824,227.69 91.3824,226.19 87.5,224.5C 87.1667,223.833 86.8333,223.167 86.5,222.5C 85.1687,220.076 83.6687,217.743 82,215.5C 81,214.833 80,214.167 79,213.5C 79.0534,211.064 78.8867,208.731 78.5,206.5C 76.7931,202.864 75.6264,202.864 75,206.5C 74.3848,204.884 73.3848,203.551 72,202.5C 69.1399,195.252 65.9733,188.252 62.5,181.5C 62.3336,172.494 62.5002,163.494 63,154.5C 63.5609,151.71 64.8942,149.377 67,147.5C 67.1471,143.912 67.9805,140.579 69.5,137.5C 69.5,136.833 69.5,136.167 69.5,135.5C 74.0675,128.92 79.0675,122.587 84.5,116.5C 91.1626,109.888 98.9959,105.221 108,102.5C 109.364,101.629 110.53,100.629 111.5,99.5C 115.534,99.4955 119.534,99.1621 123.5,98.5 Z M 111.5,131.5 C 110.213,129.743 108.713,128.076 107,126.5C 106.608,123.812 106.108,121.145 105.5,118.5C 105.833,117.833 106.167,117.167 106.5,116.5C 109.355,119.52 112.021,122.687 114.5,126C 113.643,126.689 112.977,127.522 112.5,128.5C 114.104,131.125 113.77,132.125 111.5,131.5 Z M 111.5,222.5 C 110.788,223.739 109.788,224.239 108.5,224C 109.464,222.275 110.131,220.441 110.5,218.5C 112.059,216.392 113.392,214.059 114.5,211.5C 115.002,210.479 115.668,210.312 116.5,211C 114.692,214.781 113.026,218.615 111.5,222.5 Z"/></g>
<g><path style="opacity:1" fill="#ef5453" d="M 191.5,125.5 C 191.483,129.401 192.983,132.401 196,134.5C 197.361,139.065 198.528,143.732 199.5,148.5C 202.033,151.637 203.2,155.303 203,159.5C 203.83,165.196 203.663,170.863 202.5,176.5C 201.833,176.167 201.167,175.833 200.5,175.5C 200.167,176.833 199.833,178.167 199.5,179.5C 200.693,184.533 200.693,189.533 199.5,194.5C 199.5,195.5 199.5,196.5 199.5,197.5C 195.943,200.25 193.777,203.917 193,208.5C 186.563,214.43 180.73,220.764 175.5,227.5C 171.622,230.249 167.289,232.249 162.5,233.5C 160.856,233.714 159.356,233.38 158,232.5C 157.193,234.22 155.693,234.554 153.5,233.5C 150.876,234.655 148.209,235.489 145.5,236C 146.551,234.615 147.884,233.615 149.5,233C 148.672,232.085 147.672,231.419 146.5,231C 148.167,230.667 149.833,230.333 151.5,230C 149.249,228.129 146.583,226.963 143.5,226.5C 148.829,225.388 154.162,225.388 159.5,226.5C 159.737,225.209 159.404,224.209 158.5,223.5C 157.833,223.5 157.5,223.167 157.5,222.5C 158.376,222.631 159.043,222.298 159.5,221.5C 151.468,211.557 151.635,201.891 160,192.5C 163.708,181.837 165.208,170.837 164.5,159.5C 163.5,159.5 162.5,159.5 161.5,159.5C 161.737,158.209 161.404,157.209 160.5,156.5C 160.313,154.436 159.813,152.436 159,150.5C 157.187,147.612 155.521,144.612 154,141.5C 153.211,139.288 153.378,137.288 154.5,135.5C 155.364,134.312 156.364,133.145 157.5,132C 161.107,133.449 163.607,132.282 165,128.5C 164.616,122.86 164.616,117.194 165,111.5C 167.003,116.697 167.503,116.697 166.5,111.5C 169.106,110.348 171.773,110.182 174.5,111C 174.167,111.333 173.833,111.667 173.5,112C 177.159,112.643 179.826,114.476 181.5,117.5C 179.146,119.122 179.146,120.622 181.5,122C 183.443,121.695 185.443,121.695 187.5,122C 188.705,123.376 190.038,124.542 191.5,125.5 Z"/></g>
<g><path style="opacity:1" fill="#c26477" d="M 260.5,101.5 C 260.411,110.412 259.411,119.079 257.5,127.5C 256.93,118.507 257.93,109.84 260.5,101.5 Z"/></g>
<g><path style="opacity:1" fill="#4987b5" d="M 100.5,81.5 C 97.4318,81.5467 94.4318,82.0467 91.5,83C 90.4844,83.5194 89.8178,84.3527 89.5,85.5C 90.8432,88.8496 92.1765,92.1829 93.5,95.5C 92.5,95.5 91.5,95.5 90.5,95.5C 90.2606,97.4672 90.5939,99.3005 91.5,101C 89.2117,103.026 87.2117,102.692 85.5,100C 84.5,99.3333 83.5,99.3333 82.5,100C 83.5762,101.726 83.7429,103.559 83,105.5C 81.6667,106.833 80.3333,106.833 79,105.5C 78.654,107.218 78.154,108.885 77.5,110.5C 80.5,111.833 83.5,111.833 86.5,110.5C 88.4871,107.159 91.4871,105.492 95.5,105.5C 90.6767,109.481 85.6767,113.314 80.5,117C 78.9146,119.069 77.5813,121.236 76.5,123.5C 76.1667,123.5 75.8333,123.5 75.5,123.5C 75.1079,120.052 75.7746,116.886 77.5,114C 77.3699,112.941 76.8699,112.108 76,111.5C 74.1828,114.144 71.6828,115.81 68.5,116.5C 67.9986,118.655 66.9986,120.322 65.5,121.5C 62.9296,125.968 60.9296,130.801 59.5,136C 59.1639,137.03 58.4972,137.53 57.5,137.5C 57.3205,135.046 57.9872,132.879 59.5,131C 59.1667,130.5 58.8333,130 58.5,129.5C 56.5201,131.795 55.3534,134.461 55,137.5C 53.9887,138.337 52.8221,138.67 51.5,138.5C 51.3184,136.409 51.6518,134.409 52.5,132.5C 52.3333,132.167 52.1667,131.833 52,131.5C 50.3829,132.851 49.2162,134.518 48.5,136.5C 47.5,136.167 46.8333,135.5 46.5,134.5C 48.0867,131.479 48.7533,128.479 48.5,125.5C 47.8182,126.243 47.1515,126.909 46.5,127.5C 50.7265,119.334 54.0598,110.668 56.5,101.5C 57.3236,104.785 57.8236,108.118 58,111.5C 59.8702,107.836 61.3702,104.002 62.5,100C 65.5948,98.4661 68.5948,98.2995 71.5,99.5C 63.9976,100.161 60.8309,104.161 62,111.5C 67.0211,115.786 71.3544,115.119 75,109.5C 76.1387,105.579 75.3054,102.246 72.5,99.5C 72.5,98.5 72.5,97.5 72.5,96.5C 71.1991,95.1155 71.1991,93.6155 72.5,92C 75.4816,91.502 78.4816,91.3354 81.5,91.5C 81.5,89.8333 81.5,88.1667 81.5,86.5C 82.552,86.6495 83.552,86.4828 84.5,86C 84.1667,85.6667 83.8333,85.3333 83.5,85C 87.4659,84.0853 90.1326,82.252 91.5,79.5C 94.0666,79.7777 96.7333,79.9444 99.5,80C 100.056,80.3826 100.389,80.8826 100.5,81.5 Z"/></g>
<g><path style="opacity:1" fill="#c6e8f3" d="M 71.5,99.5 C 71.8333,99.5 72.1667,99.5 72.5,99.5C 75.3054,102.246 76.1387,105.579 75,109.5C 71.3544,115.119 67.0211,115.786 62,111.5C 60.8309,104.161 63.9976,100.161 71.5,99.5 Z"/></g>
<g><path style="opacity:1" fill="#4685b4" d="M 66.5,102.5 C 72.1914,102.554 73.8581,105.221 71.5,110.5C 67.5602,112.34 64.8935,111.174 63.5,107C 64.7286,105.614 65.7286,104.114 66.5,102.5 Z"/></g>
<g><path style="opacity:1" fill="#d7f2f8" d="M 72.5,96.5 C 72.6848,94.1104 74.0182,93.1104 76.5,93.5C 79.0791,93.8595 81.5791,94.5262 84,95.5C 84.5,95.1667 85,94.8333 85.5,94.5C 84.6198,92.5708 83.6198,90.7374 82.5,89C 83.6479,87.274 84.8145,87.4407 86,89.5C 87.7411,92.3093 88.9078,95.3093 89.5,98.5C 85.4675,97.868 81.4675,97.368 77.5,97C 78.8312,98.659 80.1646,100.326 81.5,102C 81.3699,103.059 80.8699,103.892 80,104.5C 77.7155,101.568 75.2155,98.9018 72.5,96.5 Z"/></g>
<g><path style="opacity:0.725" fill="#be5959" d="M 131.5,122.5 C 134.812,122.149 137.145,123.482 138.5,126.5C 138.167,126.5 137.833,126.5 137.5,126.5C 137.167,126.5 136.833,126.5 136.5,126.5C 134.573,122.757 132.239,122.59 129.5,126C 122.898,132.096 116.898,138.596 111.5,145.5C 111.892,142.685 112.892,140.185 114.5,138C 113.71,135.718 112.71,133.552 111.5,131.5C 109.862,130.841 108.195,130.174 106.5,129.5C 105.509,126.065 104.843,122.565 104.5,119C 104.545,116.78 105.545,115.28 107.5,114.5C 110.098,117.055 112.598,119.721 115,122.5C 115.212,125.758 115.712,128.924 116.5,132C 118.167,132.667 119.833,132.667 121.5,132C 121.793,128.906 123.459,127.406 126.5,127.5C 126.5,124.167 128.167,122.5 131.5,122.5 Z M 111.5,131.5 C 113.77,132.125 114.104,131.125 112.5,128.5C 112.977,127.522 113.643,126.689 114.5,126C 112.021,122.687 109.355,119.52 106.5,116.5C 106.167,117.167 105.833,117.833 105.5,118.5C 106.108,121.145 106.608,123.812 107,126.5C 108.713,128.076 110.213,129.743 111.5,131.5 Z"/></g>
<g><path style="opacity:1" fill="#bc6978" d="M 11.5,67.5 C 10.5423,68.9616 9.37561,70.2949 8,71.5C 7.17721,79.6775 7.34387,87.6775 8.5,95.5C 8.40132,98.2372 8.73465,100.904 9.5,103.5C 9.78782,114.612 11.1212,125.612 13.5,136.5C 13.6399,138.03 14.3065,139.03 15.5,139.5C 16.9093,146.077 17.9093,152.743 18.5,159.5C 9.66689,131.003 5.50022,101.67 6,71.5C 7.45095,69.5359 9.28428,68.2026 11.5,67.5 Z"/></g>
<g><path style="opacity:1" fill="#d3f0f8" d="M 207.5,110.5 C 207.842,111.338 208.508,111.672 209.5,111.5C 213.443,113.721 214.943,117.054 214,121.5C 210.098,126.804 206.098,126.804 202,121.5C 199.082,115.335 200.916,111.668 207.5,110.5 Z"/></g>
<g><path style="opacity:1" fill="#4f88b3" d="M 204.5,113.5 C 210.989,113.156 212.989,115.99 210.5,122C 203.194,122.886 201.194,120.053 204.5,113.5 Z"/></g>
<g><path style="opacity:1" fill="#cef2fa" d="M 65.5,121.5 C 63.9669,123.355 62.3003,125.188 60.5,127C 53.5142,127.677 50.6808,124.51 52,117.5C 53.7194,115.443 55.7194,113.776 58,112.5C 58.5,112.833 59,113.167 59.5,113.5C 58.4825,114.852 57.1492,115.852 55.5,116.5C 53.3278,122.655 55.3278,124.988 61.5,123.5C 62.8681,121.363 63.8681,119.03 64.5,116.5C 65.4519,118.045 65.7852,119.712 65.5,121.5 Z"/></g>
<g><path style="opacity:1" fill="#6f789e" d="M 9.5,103.5 C 12.4681,115.2 14.4681,127.2 15.5,139.5C 14.3065,139.03 13.6399,138.03 13.5,136.5C 11.1212,125.612 9.78782,114.612 9.5,103.5 Z"/></g>
<g><path style="opacity:1" fill="#ccf2fa" d="M 221.5,129.5 C 222.715,133.301 222.715,136.967 221.5,140.5C 220.085,141.289 218.585,141.956 217,142.5C 215.2,141.68 213.366,141.014 211.5,140.5C 209.69,136.69 209.19,132.69 210,128.5C 214.092,125.751 217.925,126.084 221.5,129.5 Z"/></g>
<g><path style="opacity:1" fill="#4b89b6" d="M 212.5,129.5 C 219.786,129.082 221.786,132.082 218.5,138.5C 216.833,139.833 215.167,139.833 213.5,138.5C 211.453,135.625 211.12,132.625 212.5,129.5 Z"/></g>
<g><path style="opacity:1" fill="#9a708a" d="M 197.5,133.5 C 200.137,135.482 201.47,138.148 201.5,141.5C 198.593,139.685 197.259,137.019 197.5,133.5 Z"/></g>
<g><path style="opacity:1" fill="#b16880" d="M 256.5,127.5 C 256.5,130.167 256.5,132.833 256.5,135.5C 255.323,139.875 253.989,144.208 252.5,148.5C 252.962,143.838 253.462,139.171 254,134.5C 254.39,131.896 255.224,129.562 256.5,127.5 Z"/></g>
<g><path style="opacity:1" fill="#cff1f9" d="M 57.5,137.5 C 56.6121,139.273 55.2788,140.606 53.5,141.5C 50.3636,140.677 47.3636,139.677 44.5,138.5C 44.2417,134.633 44.9084,130.966 46.5,127.5C 47.1515,126.909 47.8182,126.243 48.5,125.5C 48.7533,128.479 48.0867,131.479 46.5,134.5C 46.8333,135.5 47.5,136.167 48.5,136.5C 49.2162,134.518 50.3829,132.851 52,131.5C 52.1667,131.833 52.3333,132.167 52.5,132.5C 51.6518,134.409 51.3184,136.409 51.5,138.5C 52.8221,138.67 53.9887,138.337 55,137.5C 55.3534,134.461 56.5201,131.795 58.5,129.5C 58.8333,130 59.1667,130.5 59.5,131C 57.9872,132.879 57.3205,135.046 57.5,137.5 Z"/></g>
<g><path style="opacity:1" fill="#d8f9fd" d="M 223.5,148.5 C 221.139,148.674 218.806,149.007 216.5,149.5C 216.397,152.219 216.731,154.885 217.5,157.5C 217.253,158.713 216.586,159.38 215.5,159.5C 215.414,155.143 215.08,150.81 214.5,146.5C 217.876,146.048 221.209,145.382 224.5,144.5C 224.833,145 225.167,145.5 225.5,146C 224.944,147.011 224.278,147.844 223.5,148.5 Z"/></g>
<g><path style="opacity:0.204" fill="#a65656" d="M 138.5,126.5 C 141.563,128.051 144.229,130.218 146.5,133C 148.473,133.495 150.473,133.662 152.5,133.5C 152.833,134.833 153.167,134.833 153.5,133.5C 153.5,133.167 153.5,132.833 153.5,132.5C 153.833,132.5 154.167,132.5 154.5,132.5C 154.5,133.5 154.5,134.5 154.5,135.5C 153.378,137.288 153.211,139.288 154,141.5C 155.521,144.612 157.187,147.612 159,150.5C 159.813,152.436 160.313,154.436 160.5,156.5C 159.442,155.4 158.608,154.066 158,152.5C 157.617,153.056 157.117,153.389 156.5,153.5C 156.5,152.5 156.5,151.5 156.5,150.5C 156.167,149.833 155.833,149.167 155.5,148.5C 154.61,145.052 152.943,142.052 150.5,139.5C 146.55,135.213 142.55,130.88 138.5,126.5 Z"/></g>
<g><path style="opacity:1" fill="#cdeef8" d="M 42.5,143.5 C 43.5862,143.62 44.2528,144.287 44.5,145.5C 43.2825,147.217 42.2825,149.05 41.5,151C 41.8333,151.5 42.1667,152 42.5,152.5C 44.9355,150.421 46.9355,147.921 48.5,145C 49.7932,144.51 51.1266,144.343 52.5,144.5C 53.0411,149.449 52.2078,154.116 50,158.5C 48.6575,159.902 47.8242,159.569 47.5,157.5C 47.7028,155.792 48.5362,154.459 50,153.5C 50.7975,151.741 50.6309,150.074 49.5,148.5C 47.563,150.792 45.8963,153.292 44.5,156C 43.2068,156.49 41.8734,156.657 40.5,156.5C 40.1502,151.964 40.8169,147.631 42.5,143.5 Z"/></g>
<g><path style="opacity:1" fill="#7178a1" d="M 75.5,123.5 C 75.8333,123.5 76.1667,123.5 76.5,123.5C 73.6503,127.199 71.317,131.199 69.5,135.5C 69.5,136.167 69.5,136.833 69.5,137.5C 68.5416,137.953 67.7083,138.619 67,139.5C 65.6447,143.89 63.978,148.223 62,152.5C 61.1754,162.342 61.342,172.009 62.5,181.5C 64.9238,190.256 68.0904,198.923 72,207.5C 75.7129,209.927 78.2129,213.26 79.5,217.5C 77.4265,216.7 75.7598,215.367 74.5,213.5C 59.7039,192.293 55.7039,168.96 62.5,143.5C 63.5,143.5 64.5,143.5 65.5,143.5C 65.3367,141.143 65.5034,138.81 66,136.5C 68.234,133.601 69.5674,130.268 70,126.5C 70.414,126.957 70.914,127.291 71.5,127.5C 72.5213,125.812 73.8546,124.479 75.5,123.5 Z"/></g>
<g><path style="opacity:1" fill="#c46573" d="M 69.5,137.5 C 67.9805,140.579 67.1471,143.912 67,147.5C 64.8942,149.377 63.5609,151.71 63,154.5C 62.5002,163.494 62.3336,172.494 62.5,181.5C 61.342,172.009 61.1754,162.342 62,152.5C 63.978,148.223 65.6447,143.89 67,139.5C 67.7083,138.619 68.5416,137.953 69.5,137.5 Z"/></g>
<g><path style="opacity:0.73" fill="#b9b1b2" d="M 149.5,140.5 C 149.833,140.5 150.167,140.5 150.5,140.5C 150.833,141.833 151.167,143.167 151.5,144.5C 150.167,162.5 150.167,180.5 151.5,198.5C 151.068,199.71 150.401,200.71 149.5,201.5C 149.5,181.167 149.5,160.833 149.5,140.5 Z"/></g>
<g><path style="opacity:1" fill="#6779a6" d="M 15.5,139.5 C 20.2662,154.979 24.5996,170.645 28.5,186.5C 27.8333,186.167 27.1667,185.833 26.5,185.5C 25.7411,180.57 24.4078,175.903 22.5,171.5C 20.5588,167.676 19.2254,163.676 18.5,159.5C 17.9093,152.743 16.9093,146.077 15.5,139.5 Z"/></g>
<g><path style="opacity:1" fill="#b66c81" d="M 22.5,171.5 C 24.4078,175.903 25.7411,180.57 26.5,185.5C 24.1837,181.206 22.8504,176.54 22.5,171.5 Z"/></g>
<g><path style="opacity:0.781" fill="#cecbca" d="M 144.5,141.5 C 144.292,150.085 144.292,158.751 144.5,167.5C 143.504,181.323 143.171,195.323 143.5,209.5C 143.167,209.5 142.833,209.5 142.5,209.5C 141.337,184.67 141.17,159.67 142,134.5C 143.043,136.833 143.876,139.166 144.5,141.5 Z"/></g>
<g><path style="opacity:0.762" fill="#b9aeaa" d="M 136.5,126.5 C 136.833,126.5 137.167,126.5 137.5,126.5C 138.003,135.154 138.336,143.821 138.5,152.5C 137.772,173.693 136.439,194.693 134.5,215.5C 133.194,186.06 133.194,156.726 134.5,127.5C 134.957,126.702 135.624,126.369 136.5,126.5 Z"/></g>
<g><path style="opacity:0.839" fill="#e8e2e1" d="M 156.5,150.5 C 156.5,151.5 156.5,152.5 156.5,153.5C 156.824,164.775 156.824,176.109 156.5,187.5C 156.975,190.082 156.308,192.082 154.5,193.5C 153.85,178.794 154.517,164.461 156.5,150.5 Z"/></g>
<g><path style="opacity:1" fill="#df5c61" d="M 191.5,125.5 C 194.471,127.443 196.471,130.109 197.5,133.5C 197.259,137.019 198.593,139.685 201.5,141.5C 202.052,145.035 203.218,148.368 205,151.5C 205.497,154.146 205.664,156.813 205.5,159.5C 206.308,170.428 205.141,181.094 202,191.5C 201.623,192.942 200.79,193.942 199.5,194.5C 200.693,189.533 200.693,184.533 199.5,179.5C 199.833,178.167 200.167,176.833 200.5,175.5C 201.167,175.833 201.833,176.167 202.5,176.5C 203.663,170.863 203.83,165.196 203,159.5C 203.2,155.303 202.033,151.637 199.5,148.5C 198.528,143.732 197.361,139.065 196,134.5C 192.983,132.401 191.483,129.401 191.5,125.5 Z"/></g>
<g><path style="opacity:1" fill="#8f7392" d="M 205.5,159.5 C 206.656,167.323 206.823,175.323 206,183.5C 205,186.833 204,190.167 203,193.5C 202.303,195.584 201.136,197.251 199.5,198.5C 199.5,198.167 199.5,197.833 199.5,197.5C 199.5,196.5 199.5,195.5 199.5,194.5C 200.79,193.942 201.623,192.942 202,191.5C 205.141,181.094 206.308,170.428 205.5,159.5 Z"/></g>
<g><path style="opacity:0.733" fill="#cfcecd" d="M 149.5,140.5 C 149.5,160.833 149.5,181.167 149.5,201.5C 149.5,201.833 149.5,202.167 149.5,202.5C 148.168,192.689 147.501,182.523 147.5,172C 147.667,161.833 147.833,151.667 148,141.5C 148.383,140.944 148.883,140.611 149.5,140.5 Z"/></g>
<g><path style="opacity:1" fill="#d6f3fb" d="M 213.5,181.5 C 214.5,181.5 215.5,181.5 216.5,181.5C 215.423,184.227 214.423,187.06 213.5,190C 214.51,194.337 217.01,195.503 221,193.5C 222.436,190.857 222.602,188.19 221.5,185.5C 220.833,186.5 220.167,187.5 219.5,188.5C 218.526,186.257 218.192,183.924 218.5,181.5C 220.924,181.192 223.257,181.526 225.5,182.5C 224.829,186.526 223.996,190.526 223,194.5C 219.412,198.393 215.746,198.393 212,194.5C 211.15,189.979 211.65,185.645 213.5,181.5 Z"/></g>
<g><path style="opacity:1" fill="#b66c7c" d="M 243.5,175.5 C 241.723,182.998 239.223,190.331 236,197.5C 235.292,198.381 234.458,199.047 233.5,199.5C 234.167,197.833 234.833,196.167 235.5,194.5C 235.5,193.5 235.5,192.5 235.5,191.5C 238.758,186.348 241.424,181.015 243.5,175.5 Z"/></g>
<g><path style="opacity:0.016" fill="#7d7576" d="M 151.5,144.5 C 151.337,146.857 151.503,149.19 152,151.5C 152.759,149.937 153.926,148.937 155.5,148.5C 155.833,149.167 156.167,149.833 156.5,150.5C 154.517,164.461 153.85,178.794 154.5,193.5C 154.167,193.5 153.833,193.5 153.5,193.5C 152.778,193.082 152.278,192.416 152,191.5C 151.503,193.81 151.337,196.143 151.5,198.5C 150.167,180.5 150.167,162.5 151.5,144.5 Z"/></g>
<g><path style="opacity:0.024" fill="#868082" d="M 150.5,139.5 C 150.5,139.833 150.5,140.167 150.5,140.5C 150.167,140.5 149.833,140.5 149.5,140.5C 148.883,140.611 148.383,140.944 148,141.5C 147.833,151.667 147.667,161.833 147.5,172C 147.501,182.523 148.168,192.689 149.5,202.5C 149.158,203.338 148.492,203.672 147.5,203.5C 146.337,182.671 146.171,161.671 147,140.5C 147.704,138.273 148.871,137.94 150.5,139.5 Z"/></g>
<g><path style="opacity:0.984" fill="#d76061" d="M 160.5,156.5 C 161.404,157.209 161.737,158.209 161.5,159.5C 162.5,159.5 163.5,159.5 164.5,159.5C 165.208,170.837 163.708,181.837 160,192.5C 151.635,201.891 151.468,211.557 159.5,221.5C 159.043,222.298 158.376,222.631 157.5,222.5C 157.5,221.833 157.167,221.5 156.5,221.5C 156.672,220.508 156.338,219.842 155.5,219.5C 155.771,217.62 155.104,216.287 153.5,215.5C 153.5,214.833 153.5,214.167 153.5,213.5C 152.572,210.87 151.572,208.204 150.5,205.5C 154.635,198.851 158.135,191.851 161,184.5C 161.5,183 162,181.5 162.5,180C 162.164,178.97 161.497,178.47 160.5,178.5C 161.722,171.217 161.722,163.884 160.5,156.5 Z"/></g>
<g><path style="opacity:1" fill="#ca6573" d="M 26.5,185.5 C 27.1667,185.833 27.8333,186.167 28.5,186.5C 28.5,186.833 28.5,187.167 28.5,187.5C 28.933,190.166 29.433,192.832 30,195.5C 32.603,200.494 35.103,205.494 37.5,210.5C 38.412,212.595 39.5787,214.595 41,216.5C 41.49,217.793 41.6567,219.127 41.5,220.5C 34.2161,209.86 29.2161,198.193 26.5,185.5 Z"/></g>
<g><path style="opacity:0.306" fill="#945553" d="M 144.5,167.5 C 144.333,181.171 144.5,194.837 145,208.5C 146.074,207.382 147.24,206.382 148.5,205.5C 148.137,204.817 147.804,204.15 147.5,203.5C 148.492,203.672 149.158,203.338 149.5,202.5C 149.5,202.167 149.5,201.833 149.5,201.5C 150.401,200.71 151.068,199.71 151.5,198.5C 153.659,197.215 154.326,195.548 153.5,193.5C 153.833,193.5 154.167,193.5 154.5,193.5C 156.308,192.082 156.975,190.082 156.5,187.5C 158.974,185.102 160.308,182.102 160.5,178.5C 161.497,178.47 162.164,178.97 162.5,180C 162,181.5 161.5,183 161,184.5C 158.135,191.851 154.635,198.851 150.5,205.5C 151.572,208.204 152.572,210.87 153.5,213.5C 153.167,213.5 152.833,213.5 152.5,213.5C 152.5,212.833 152.167,212.5 151.5,212.5C 149.864,211.251 148.697,209.584 148,207.5C 145.971,209.033 144.138,210.699 142.5,212.5C 142.5,211.833 142.5,211.167 142.5,210.5C 143.167,210.5 143.5,210.167 143.5,209.5C 143.171,195.323 143.504,181.323 144.5,167.5 Z M 153.5,193.5 C 154.326,195.548 153.659,197.215 151.5,198.5C 151.337,196.143 151.503,193.81 152,191.5C 152.278,192.416 152.778,193.082 153.5,193.5 Z"/></g>
<g><path style="opacity:0.573" fill="#7a6e6d" d="M 144.5,141.5 C 143.876,139.166 143.043,136.833 142,134.5C 141.17,159.67 141.337,184.67 142.5,209.5C 142.5,209.833 142.5,210.167 142.5,210.5C 142.5,211.167 142.5,211.833 142.5,212.5C 140.393,214.727 138.06,216.727 135.5,218.5C 135.047,217.542 134.381,216.708 133.5,216C 133.728,215.601 134.062,215.435 134.5,215.5C 136.439,194.693 137.772,173.693 138.5,152.5C 138.167,172.844 138.5,193.178 139.5,213.5C 141.801,212.731 141.967,211.731 140,210.5C 139.333,185.167 139.333,159.833 140,134.5C 141.154,132.043 142.488,132.043 144,134.5C 144.497,136.81 144.663,139.143 144.5,141.5 Z"/></g>
<g><path style="opacity:1" fill="#db5d64" d="M 62.5,181.5 C 65.9733,188.252 69.1399,195.252 72,202.5C 73.3848,203.551 74.3848,204.884 75,206.5C 75.6264,202.864 76.7931,202.864 78.5,206.5C 78.8867,208.731 79.0534,211.064 79,213.5C 80,214.167 81,214.833 82,215.5C 83.6687,217.743 85.1687,220.076 86.5,222.5C 84.3281,220.656 81.9947,218.989 79.5,217.5C 78.2129,213.26 75.7129,209.927 72,207.5C 68.0904,198.923 64.9238,190.256 62.5,181.5 Z"/></g>
<g><path style="opacity:1" fill="#d0f1fb" d="M 61.5,206.5 C 61.6596,208.153 62.3263,209.486 63.5,210.5C 64.0476,212.394 65.0476,214.06 66.5,215.5C 66.1667,215.833 65.8333,216.167 65.5,216.5C 63.8119,214.971 62.4786,213.137 61.5,211C 60.552,210.517 59.552,210.351 58.5,210.5C 58.5861,212.677 59.2528,214.677 60.5,216.5C 60.1667,216.833 59.8333,217.167 59.5,217.5C 58.376,216.086 57.376,214.586 56.5,213C 55.552,212.517 54.552,212.351 53.5,212.5C 54.7208,216.244 55.8875,219.91 57,223.5C 54.4167,219.913 52.25,216.08 50.5,212C 50.6448,211.228 50.9781,210.561 51.5,210C 54.733,208.614 58.0664,207.447 61.5,206.5 Z"/></g>
<g><path style="opacity:1" fill="#d8f3fb" d="M 203.5,210.5 C 203.833,209.833 204.167,209.167 204.5,208.5C 208.346,207.623 212.012,206.29 215.5,204.5C 213.219,203.723 211.052,202.723 209,201.5C 208.568,200.4 209.068,199.733 210.5,199.5C 213.316,200.105 215.983,201.105 218.5,202.5C 219.731,203.651 219.731,204.817 218.5,206C 214.828,207.503 211.162,209.003 207.5,210.5C 209.67,212.086 212.004,213.42 214.5,214.5C 215.61,216.566 214.944,217.399 212.5,217C 209.995,215.247 207.329,213.747 204.5,212.5C 203.702,212.043 203.369,211.376 203.5,210.5 Z"/></g>
<g><path style="opacity:1" fill="#7b76a0" d="M 235.5,194.5 C 234.833,196.167 234.167,197.833 233.5,199.5C 231.858,204.789 229.191,209.455 225.5,213.5C 226.826,209.511 228.159,205.511 229.5,201.5C 231.505,198.975 233.505,196.641 235.5,194.5 Z"/></g>
<g><path style="opacity:1" fill="#cd626c" d="M 199.5,197.5 C 199.5,197.833 199.5,198.167 199.5,198.5C 197.984,202.217 196.318,205.884 194.5,209.5C 188.133,215.535 181.8,221.535 175.5,227.5C 180.73,220.764 186.563,214.43 193,208.5C 193.777,203.917 195.943,200.25 199.5,197.5 Z"/></g>
<g><path style="opacity:1" fill="#8a7596" d="M 194.5,209.5 C 186.597,223.405 174.931,232.405 159.5,236.5C 160.1,235.1 161.1,234.1 162.5,233.5C 167.289,232.249 171.622,230.249 175.5,227.5C 181.8,221.535 188.133,215.535 194.5,209.5 Z"/></g>
<g><path style="opacity:1" fill="#cc5b5a" d="M 105.5,175.5 C 109.781,192.888 118.781,207.388 132.5,219C 133.577,219.47 134.577,219.303 135.5,218.5C 138.06,216.727 140.393,214.727 142.5,212.5C 144.138,210.699 145.971,209.033 148,207.5C 148.697,209.584 149.864,211.251 151.5,212.5C 152.167,212.5 152.5,212.833 152.5,213.5C 152.328,214.492 152.662,215.158 153.5,215.5C 153.66,217.153 154.326,218.486 155.5,219.5C 155.328,220.492 155.662,221.158 156.5,221.5C 156.5,222.5 156.5,223.5 156.5,224.5C 154.01,221.529 152.01,218.196 150.5,214.5C 149.672,213.585 148.672,212.919 147.5,212.5C 144.021,215.086 140.688,217.919 137.5,221C 135.5,221.667 133.5,221.667 131.5,221C 128.605,216.437 124.772,212.937 120,210.5C 118.389,212.21 116.889,214.043 115.5,216C 115.869,218.877 114.535,221.044 111.5,222.5C 113.026,218.615 114.692,214.781 116.5,211C 115.668,210.312 115.002,210.479 114.5,211.5C 113.392,214.059 112.059,216.392 110.5,218.5C 111.915,213.914 113.582,209.414 115.5,205C 113.293,199.413 110.459,194.246 107,189.5C 105.878,184.898 105.378,180.232 105.5,175.5 Z"/></g>
<g><path style="opacity:1" fill="#d0f1fa" d="M 200.5,215.5 C 204.373,217.037 207.707,219.37 210.5,222.5C 209.833,222.833 209.167,223.167 208.5,223.5C 205.023,222.258 202.023,220.258 199.5,217.5C 199.863,216.817 200.196,216.15 200.5,215.5 Z"/></g>
<g><path style="opacity:1" fill="#d3616a" d="M 87.5,224.5 C 91.3824,226.19 95.3824,227.69 99.5,229C 100.5,230 101.5,231 102.5,232C 105.177,232.249 107.51,233.249 109.5,235C 113.134,235.156 116.467,236.156 119.5,238C 129.161,238.5 138.828,238.666 148.5,238.5C 139.047,240.787 129.38,241.121 119.5,239.5C 117.801,239.66 116.134,239.494 114.5,239C 109.773,236.422 104.773,234.422 99.5,233C 94.9404,230.893 90.9404,228.06 87.5,224.5 Z"/></g>
<g><path style="opacity:1" fill="#d3f2fa" d="M 195.5,222.5 C 198.39,222.278 201.057,222.945 203.5,224.5C 205.568,229.577 204.235,233.411 199.5,236C 192.725,238.06 189.725,235.56 190.5,228.5C 192.167,226.5 193.833,224.5 195.5,222.5 Z"/></g>
<g><path style="opacity:1" fill="#4887b3" d="M 195.5,225.5 C 202.913,225.699 204.246,228.532 199.5,234C 194.504,234.664 192.67,232.498 194,227.5C 194.717,226.956 195.217,226.289 195.5,225.5 Z"/></g>
<g><path style="opacity:1" fill="#6a7aa4" d="M 79.5,217.5 C 81.9947,218.989 84.3281,220.656 86.5,222.5C 86.8333,223.167 87.1667,223.833 87.5,224.5C 90.9404,228.06 94.9404,230.893 99.5,233C 104.773,234.422 109.773,236.422 114.5,239C 116.134,239.494 117.801,239.66 119.5,239.5C 119.5,239.833 119.5,240.167 119.5,240.5C 113.779,241.314 108.779,239.814 104.5,236C 101.628,235.685 98.7952,235.185 96,234.5C 93.3702,230.336 89.5369,228.336 84.5,228.5C 83.0722,224.65 81.4056,220.983 79.5,217.5 Z"/></g>
<g><path style="opacity:1" fill="#cceff8" d="M 176.5,238.5 C 177.71,238.068 178.71,237.401 179.5,236.5C 183.335,233.875 187.168,233.875 191,236.5C 192.352,243.476 189.519,247.309 182.5,248C 179.845,245.178 177.845,242.011 176.5,238.5 Z"/></g>
<g><path style="opacity:1" fill="#4e86ae" d="M 183.5,236.5 C 186.491,236.33 188.491,237.663 189.5,240.5C 186.248,247.26 183.248,247.093 180.5,240C 181.071,238.401 182.071,237.234 183.5,236.5 Z"/></g>
<g><path style="opacity:1" fill="#8a7495" d="M 223.5,218.5 C 222.217,220.606 221.384,222.94 221,225.5C 215.326,230.233 211.159,235.9 208.5,242.5C 208.167,242.5 207.833,242.5 207.5,242.5C 209.026,238.771 210.859,235.104 213,231.5C 216.063,226.786 219.563,222.453 223.5,218.5 Z"/></g>
<g><path style="opacity:1" fill="#3e87bd" d="M 61.5,206.5 C 58.0664,207.447 54.733,208.614 51.5,210C 50.9781,210.561 50.6448,211.228 50.5,212C 52.25,216.08 54.4167,219.913 57,223.5C 55.8875,219.91 54.7208,216.244 53.5,212.5C 54.552,212.351 55.552,212.517 56.5,213C 57.376,214.586 58.376,216.086 59.5,217.5C 59.8333,217.167 60.1667,216.833 60.5,216.5C 59.2528,214.677 58.5861,212.677 58.5,210.5C 59.552,210.351 60.552,210.517 61.5,211C 62.4786,213.137 63.8119,214.971 65.5,216.5C 65.8333,216.167 66.1667,215.833 66.5,215.5C 65.0476,214.06 64.0476,212.394 63.5,210.5C 68.5408,210.353 70.2074,212.519 68.5,217C 63.3147,218.074 62.648,220.074 66.5,223C 65.3044,223.654 65.3044,224.154 66.5,224.5C 67.1667,223.5 67.8333,222.5 68.5,221.5C 69.6956,221.846 69.6956,222.346 68.5,223C 69.7932,223.49 71.1266,223.657 72.5,223.5C 72.78,220.728 72.1134,218.228 70.5,216C 72.437,215.878 73.7703,215.045 74.5,213.5C 75.7598,215.367 77.4265,216.7 79.5,217.5C 81.4056,220.983 83.0722,224.65 84.5,228.5C 89.5369,228.336 93.3702,230.336 96,234.5C 98.7952,235.185 101.628,235.685 104.5,236C 108.779,239.814 113.779,241.314 119.5,240.5C 128.793,241.418 138.127,241.752 147.5,241.5C 152.158,242.621 156.825,243.955 161.5,245.5C 163.14,243.86 164.806,242.194 166.5,240.5C 168.183,241.853 169.516,243.52 170.5,245.5C 169.638,249.453 169.305,253.453 169.5,257.5C 167.219,257.923 165.552,257.256 164.5,255.5C 165.824,256.85 166.824,256.683 167.5,255C 166.666,251.518 166.5,248.018 167,244.5C 165.833,246.167 164.667,247.833 163.5,249.5C 161.588,247.844 159.588,247.511 157.5,248.5C 159.837,249.843 161.837,251.51 163.5,253.5C 161.396,253.201 159.396,253.534 157.5,254.5C 158.388,258.909 159.221,263.242 160,267.5C 159.586,267.957 159.086,268.291 158.5,268.5C 157.534,266.604 157.201,264.604 157.5,262.5C 154.71,262.222 152.21,262.889 150,264.5C 147.815,264.302 146.315,263.302 145.5,261.5C 148.91,261.543 152.243,261.043 155.5,260C 156.357,259.311 157.023,258.478 157.5,257.5C 156.103,255.018 155.269,252.352 155,249.5C 146.913,246.286 143.413,248.953 144.5,257.5C 143.21,256.942 142.377,255.942 142,254.5C 141.692,255.308 141.192,255.975 140.5,256.5C 139.548,254.955 139.215,253.288 139.5,251.5C 140.5,251.5 141.5,251.5 142.5,251.5C 142.819,249.25 142.319,247.25 141,245.5C 139.333,245.833 137.667,246.167 136,246.5C 136.74,251.509 136.406,256.509 135,261.5C 133.47,264.353 131.303,265.02 128.5,263.5C 127.333,261.833 126.167,260.167 125,258.5C 124.333,259.833 123.667,259.833 123,258.5C 122.667,260.167 122.333,261.833 122,263.5C 119.75,263.695 117.416,263.361 115,262.5C 113.624,262.316 112.791,261.649 112.5,260.5C 114.786,259.66 115.119,258.16 113.5,256C 116.488,253.801 116.822,251.467 114.5,249C 107.102,244.534 103.102,246.701 102.5,255.5C 102.833,256.167 103.167,256.833 103.5,257.5C 108.323,252.913 110.989,253.913 111.5,260.5C 110.735,259.34 109.735,258.34 108.5,257.5C 106.711,258.877 104.711,259.877 102.5,260.5C 101.327,257.721 99.4932,257.054 97,258.5C 95.1079,257.383 94.2746,255.716 94.5,253.5C 91.5113,252.365 88.5113,252.198 85.5,253C 84.695,251.887 84.0283,250.721 83.5,249.5C 84.7997,250.108 86.1331,250.775 87.5,251.5C 88.6721,251.081 89.6721,250.415 90.5,249.5C 92.1667,250.333 93.8333,251.167 95.5,252C 96.0495,253.845 97.0495,255.345 98.5,256.5C 99.4933,251.88 99.8266,247.214 99.5,242.5C 97.8008,242.34 96.1341,242.506 94.5,243C 91.9708,245.029 89.3041,246.862 86.5,248.5C 83.0787,247.461 80.4121,245.461 78.5,242.5C 78.8076,241.692 79.3076,241.025 80,240.5C 81.692,242.245 83.5253,242.578 85.5,241.5C 83.0693,240.64 81.736,238.973 81.5,236.5C 84.3538,237.931 87.3538,238.764 90.5,239C 87.9708,236.971 85.3041,235.138 82.5,233.5C 79.8756,235.622 77.3756,237.955 75,240.5C 74.3333,241.5 74.3333,242.5 75,243.5C 77.6513,245.416 80.1513,247.416 82.5,249.5C 79.5001,248.353 76.5001,248.187 73.5,249C 72,246.167 69.8333,244 67,242.5C 66.7266,240.899 66.2266,239.399 65.5,238C 64.2575,237.689 63.2575,238.189 62.5,239.5C 61.8849,236.564 60.7183,233.897 59,231.5C 57.8279,236.459 58.9946,240.792 62.5,244.5C 61.1931,245.865 61.1931,247.198 62.5,248.5C 60.8297,248.249 59.3297,247.582 58,246.5C 54.5983,237.93 50.2649,229.93 45,222.5C 43.7383,217.626 41.2383,213.626 37.5,210.5C 35.103,205.494 32.603,200.494 30,195.5C 29.433,192.832 28.933,190.166 28.5,187.5C 30.1765,188.183 30.8432,189.517 30.5,191.5C 31.5,191.5 32.5,191.5 33.5,191.5C 34.3954,195.45 35.3954,199.45 36.5,203.5C 38.6737,206.081 40.8404,206.081 43,203.5C 43.8468,199.836 45.3468,196.503 47.5,193.5C 42.3391,193.842 40.1725,191.508 41,186.5C 44.6312,184.368 47.7978,181.701 50.5,178.5C 52.396,177.534 54.396,177.201 56.5,177.5C 56.8503,181.054 56.1837,184.388 54.5,187.5C 55.6197,189.596 57.1197,189.93 59,188.5C 58.422,192.168 58.5887,195.834 59.5,199.5C 60.7362,200.246 62.0695,200.579 63.5,200.5C 62.8333,202.5 62.1667,204.5 61.5,206.5 Z"/></g>
<g><path style="opacity:1" fill="#cdf0fb" d="M 71.5,224.5 C 72.5,224.5 73.5,224.5 74.5,224.5C 74.719,225.675 74.3857,226.675 73.5,227.5C 71.5,229.5 69.5,231.5 67.5,233.5C 68.8149,235.316 70.3149,236.983 72,238.5C 72.6667,239.167 72.6667,239.833 72,240.5C 68.8208,238.654 66.3208,236.154 64.5,233C 66.684,229.988 69.0174,227.155 71.5,224.5 Z"/></g>
<g><path style="opacity:1" fill="#d6f1f7" d="M 47.5,193.5 C 46.7387,192.609 45.7387,191.942 44.5,191.5C 43.3691,189.926 43.2025,188.259 44,186.5C 46.8725,183.794 50.0392,182.461 53.5,182.5C 51.8061,184.861 49.8061,186.861 47.5,188.5C 49.9716,189.896 52.6383,190.73 55.5,191C 55.615,195.039 53.615,198.039 49.5,200C 52.6912,201.087 56.0245,201.92 59.5,202.5C 55.2172,203.492 50.8839,203.826 46.5,203.5C 46.4411,199.452 48.1078,196.285 51.5,194C 50.2068,193.51 48.8734,193.343 47.5,193.5 Z"/></g>
<g><path style="opacity:1" fill="#3186c4" d="M 204.5,208.5 C 204.167,209.167 203.833,209.833 203.5,210.5C 202.73,212.299 201.397,213.632 199.5,214.5C 198.692,216.423 198.192,218.423 198,220.5C 197.005,221.066 196.172,221.733 195.5,222.5C 193.833,224.5 192.167,226.5 190.5,228.5C 189.5,228.5 188.5,228.5 187.5,228.5C 187.5,229.833 187.5,231.167 187.5,232.5C 184.413,232.457 181.413,232.29 178.5,232C 179.38,233.356 179.714,234.856 179.5,236.5C 178.71,237.401 177.71,238.068 176.5,238.5C 175.876,238.917 175.543,239.584 175.5,240.5C 177.917,249.217 183.251,251.551 191.5,247.5C 192.487,244.232 192.82,240.898 192.5,237.5C 195.421,237.146 197.754,238.146 199.5,240.5C 200.935,238.599 202.602,238.266 204.5,239.5C 203.902,240.795 203.402,242.128 203,243.5C 200.681,242.704 198.514,243.204 196.5,245C 198.671,246.174 199.671,248.007 199.5,250.5C 197.533,250.261 195.699,250.594 194,251.5C 193.091,254.513 192.258,257.513 191.5,260.5C 189.3,264.88 186.467,268.88 183,272.5C 180.066,274.518 177.566,276.852 175.5,279.5C 173.01,281.12 170.344,282.62 167.5,284C 165.248,287.413 162.581,290.247 159.5,292.5C 159.5,292.833 159.5,293.167 159.5,293.5C 155.758,294.881 152.424,297.048 149.5,300C 146.086,300.354 144.086,302.188 143.5,305.5C 143.167,305.5 142.833,305.5 142.5,305.5C 139.582,306.454 136.582,307.121 133.5,307.5C 130.418,307.121 127.418,306.454 124.5,305.5C 124.719,304.325 124.386,303.325 123.5,302.5C 118.267,298.939 112.6,296.272 106.5,294.5C 105.904,293.284 105.737,291.951 106,290.5C 104.644,289.62 103.144,289.286 101.5,289.5C 101.726,283.897 99.2259,281.231 94,281.5C 94.6319,278.954 95.1319,276.288 95.5,273.5C 92.5253,273.307 90.0253,274.307 88,276.5C 85.4526,275.527 83.9526,273.693 83.5,271C 82.552,270.517 81.552,270.351 80.5,270.5C 80.5,269.167 80.5,267.833 80.5,266.5C 78.7839,266.371 77.1172,266.038 75.5,265.5C 73.8762,262.543 71.5429,260.209 68.5,258.5C 67.7774,254.249 65.7774,250.915 62.5,248.5C 61.1931,247.198 61.1931,245.865 62.5,244.5C 58.9946,240.792 57.8279,236.459 59,231.5C 60.7183,233.897 61.8849,236.564 62.5,239.5C 63.2575,238.189 64.2575,237.689 65.5,238C 66.2266,239.399 66.7266,240.899 67,242.5C 69.8333,244 72,246.167 73.5,249C 76.5001,248.187 79.5001,248.353 82.5,249.5C 82.8333,249.5 83.1667,249.5 83.5,249.5C 84.0283,250.721 84.695,251.887 85.5,253C 88.5113,252.198 91.5113,252.365 94.5,253.5C 94.2746,255.716 95.1079,257.383 97,258.5C 99.4932,257.054 101.327,257.721 102.5,260.5C 104.711,259.877 106.711,258.877 108.5,257.5C 109.735,258.34 110.735,259.34 111.5,260.5C 111.833,260.5 112.167,260.5 112.5,260.5C 112.791,261.649 113.624,262.316 115,262.5C 117.416,263.361 119.75,263.695 122,263.5C 122.333,261.833 122.667,260.167 123,258.5C 123.667,259.833 124.333,259.833 125,258.5C 126.167,260.167 127.333,261.833 128.5,263.5C 131.303,265.02 133.47,264.353 135,261.5C 136.406,256.509 136.74,251.509 136,246.5C 137.667,246.167 139.333,245.833 141,245.5C 142.319,247.25 142.819,249.25 142.5,251.5C 141.5,251.5 140.5,251.5 139.5,251.5C 139.215,253.288 139.548,254.955 140.5,256.5C 141.192,255.975 141.692,255.308 142,254.5C 142.377,255.942 143.21,256.942 144.5,257.5C 144.232,259.099 144.566,260.432 145.5,261.5C 146.315,263.302 147.815,264.302 150,264.5C 152.21,262.889 154.71,262.222 157.5,262.5C 157.201,264.604 157.534,266.604 158.5,268.5C 159.086,268.291 159.586,267.957 160,267.5C 159.221,263.242 158.388,258.909 157.5,254.5C 159.396,253.534 161.396,253.201 163.5,253.5C 164.338,253.842 164.672,254.508 164.5,255.5C 165.552,257.256 167.219,257.923 169.5,257.5C 169.305,253.453 169.638,249.453 170.5,245.5C 169.516,243.52 168.183,241.853 166.5,240.5C 164.806,242.194 163.14,243.86 161.5,245.5C 156.825,243.955 152.158,242.621 147.5,241.5C 151.651,240.227 155.651,238.56 159.5,236.5C 174.931,232.405 186.597,223.405 194.5,209.5C 195.708,208.766 197.041,208.433 198.5,208.5C 199.97,205.682 200.97,202.682 201.5,199.5C 202.833,199.5 204.167,199.5 205.5,199.5C 205.325,202.329 206.658,203.996 209.5,204.5C 207.637,205.689 205.97,207.022 204.5,208.5 Z"/></g>
<g><path style="opacity:1" fill="#97718e" d="M 159.5,236.5 C 155.651,238.56 151.651,240.227 147.5,241.5C 138.127,241.752 128.793,241.418 119.5,240.5C 119.5,240.167 119.5,239.833 119.5,239.5C 129.38,241.121 139.047,240.787 148.5,238.5C 152.233,238.13 155.899,237.463 159.5,236.5 Z"/></g>
<g><path style="opacity:1" fill="#c2e3ef" d="M 83.5,249.5 C 83.1667,249.5 82.8333,249.5 82.5,249.5C 80.1513,247.416 77.6513,245.416 75,243.5C 74.3333,242.5 74.3333,241.5 75,240.5C 77.3756,237.955 79.8756,235.622 82.5,233.5C 85.3041,235.138 87.9708,236.971 90.5,239C 87.3538,238.764 84.3538,237.931 81.5,236.5C 81.736,238.973 83.0693,240.64 85.5,241.5C 83.5253,242.578 81.692,242.245 80,240.5C 79.3076,241.025 78.8076,241.692 78.5,242.5C 80.4121,245.461 83.0787,247.461 86.5,248.5C 89.3041,246.862 91.9708,245.029 94.5,243C 96.1341,242.506 97.8008,242.34 99.5,242.5C 99.8266,247.214 99.4933,251.88 98.5,256.5C 97.0495,255.345 96.0495,253.845 95.5,252C 93.8333,251.167 92.1667,250.333 90.5,249.5C 89.6721,250.415 88.6721,251.081 87.5,251.5C 86.1331,250.775 84.7997,250.108 83.5,249.5 Z"/></g>
<g><path style="opacity:1" fill="#b96a7d" d="M 207.5,242.5 C 207.833,242.5 208.167,242.5 208.5,242.5C 206.795,245.042 205.295,247.708 204,250.5C 196.616,257.55 189.949,265.217 184,273.5C 181.401,275.879 178.567,277.879 175.5,279.5C 177.566,276.852 180.066,274.518 183,272.5C 186.467,268.88 189.3,264.88 191.5,260.5C 194.394,259.118 196.894,257.118 199,254.5C 201.93,250.474 204.763,246.474 207.5,242.5 Z"/></g>
<g><path style="opacity:1" fill="#d2f3f9" d="M 112.5,260.5 C 112.167,260.5 111.833,260.5 111.5,260.5C 110.989,253.913 108.323,252.913 103.5,257.5C 103.167,256.833 102.833,256.167 102.5,255.5C 103.102,246.701 107.102,244.534 114.5,249C 116.822,251.467 116.488,253.801 113.5,256C 115.119,258.16 114.786,259.66 112.5,260.5 Z"/></g>
<g><path style="opacity:1" fill="#5785a1" d="M 107.5,248.5 C 115.21,250.543 115.21,251.876 107.5,252.5C 107.5,251.167 107.5,249.833 107.5,248.5 Z"/></g>
<g><path style="opacity:1" fill="#d6f6fb" d="M 164.5,255.5 C 164.672,254.508 164.338,253.842 163.5,253.5C 161.837,251.51 159.837,249.843 157.5,248.5C 159.588,247.511 161.588,247.844 163.5,249.5C 164.667,247.833 165.833,246.167 167,244.5C 166.5,248.018 166.666,251.518 167.5,255C 166.824,256.683 165.824,256.85 164.5,255.5 Z"/></g>
<g><path style="opacity:1" fill="#ccecf3" d="M 145.5,261.5 C 144.566,260.432 144.232,259.099 144.5,257.5C 143.413,248.953 146.913,246.286 155,249.5C 155.269,252.352 156.103,255.018 157.5,257.5C 157.023,258.478 156.357,259.311 155.5,260C 152.243,261.043 148.91,261.543 145.5,261.5 Z"/></g>
<g><path style="opacity:1" fill="#598baf" d="M 147.5,255.5 C 149.833,255.5 152.167,255.5 154.5,255.5C 154.5,256.5 154.5,257.5 154.5,258.5C 152.194,258.993 149.861,259.326 147.5,259.5C 147.5,258.167 147.5,256.833 147.5,255.5 Z"/></g>
<g><path style="opacity:1" fill="#c26773" d="M 59.5,249.5 C 61.0744,249.937 62.2411,250.937 63,252.5C 63.9888,254.97 65.1554,257.303 66.5,259.5C 62.6927,257.225 60.3593,253.892 59.5,249.5 Z"/></g>
<g><path style="opacity:1" fill="#d1eef6" d="M 120.5,250.5 C 121.873,250.343 123.207,250.51 124.5,251C 125.958,253.627 127.624,256.127 129.5,258.5C 130.48,255.914 130.813,253.247 130.5,250.5C 131.5,250.5 132.5,250.5 133.5,250.5C 133.793,254.437 133.46,258.27 132.5,262C 131.056,262.781 129.723,262.614 128.5,261.5C 124.521,252.893 122.188,252.893 121.5,261.5C 120.325,261.719 119.325,261.386 118.5,260.5C 119.26,257.179 119.926,253.846 120.5,250.5 Z"/></g>
<g><path style="opacity:1" fill="#807599" d="M 37.5,210.5 C 41.2383,213.626 43.7383,217.626 45,222.5C 50.2649,229.93 54.5983,237.93 58,246.5C 59.3297,247.582 60.8297,248.249 62.5,248.5C 65.7774,250.915 67.7774,254.249 68.5,258.5C 71.5429,260.209 73.8762,262.543 75.5,265.5C 78.6891,270.093 82.3557,274.259 86.5,278C 92.3326,281.333 96.9993,285.833 100.5,291.5C 92.0726,285.245 84.0726,278.412 76.5,271C 73.0311,267.188 69.6977,263.355 66.5,259.5C 65.1554,257.303 63.9888,254.97 63,252.5C 62.2411,250.937 61.0744,249.937 59.5,249.5C 54.4744,244.95 51.3078,239.283 50,232.5C 47.0704,228.474 44.2371,224.474 41.5,220.5C 41.6567,219.127 41.49,217.793 41,216.5C 39.5787,214.595 38.412,212.595 37.5,210.5 Z"/></g>
<g><path style="opacity:1" fill="#4f80b6" d="M 75.5,265.5 C 77.1172,266.038 78.7839,266.371 80.5,266.5C 80.5,267.833 80.5,269.167 80.5,270.5C 81.552,270.351 82.552,270.517 83.5,271C 83.9526,273.693 85.4526,275.527 88,276.5C 90.0253,274.307 92.5253,273.307 95.5,273.5C 95.1319,276.288 94.6319,278.954 94,281.5C 99.2259,281.231 101.726,283.897 101.5,289.5C 103.144,289.286 104.644,289.62 106,290.5C 105.737,291.951 105.904,293.284 106.5,294.5C 112.6,296.272 118.267,298.939 123.5,302.5C 124.386,303.325 124.719,304.325 124.5,305.5C 127.418,306.454 130.418,307.121 133.5,307.5C 136.582,307.121 139.582,306.454 142.5,305.5C 137.891,309.478 132.557,310.478 126.5,308.5C 120.504,305.503 114.837,302.003 109.5,298C 105.531,297.2 102.531,295.034 100.5,291.5C 96.9993,285.833 92.3326,281.333 86.5,278C 82.3557,274.259 78.6891,270.093 75.5,265.5 Z"/></g>
<g><path style="opacity:1" fill="#847393" d="M 175.5,279.5 C 171.27,285.27 165.937,289.603 159.5,292.5C 162.581,290.247 165.248,287.413 167.5,284C 170.344,282.62 173.01,281.12 175.5,279.5 Z"/></g>
<g><path style="opacity:1" fill="#857495" d="M 159.5,293.5 C 154.452,297.882 149.118,301.882 143.5,305.5C 144.086,302.188 146.086,300.354 149.5,300C 152.424,297.048 155.758,294.881 159.5,293.5 Z"/></g>
</svg>
